<svg width="493" height="122" viewBox="0 0 493 122" fill="none" xmlns="http://www.w3.org/2000/svg">
<path d="M17.01 17.01V104.98H133.36V17.01H17.01ZM120.6 75.86C120.57 76.24 120.41 76.6 120.35 76.98C120.3 77.36 120.35 77.75 120.28 78.12C120.2 78.49 120.15 78.87 120.04 79.24C119.94 79.61 119.87 79.99 119.74 80.35C119.61 80.71 119.26 80.98 119.11 81.32C118.96 81.67 118.84 82.02 118.66 82.36C118.48 82.7 118.44 83.11 118.25 83.43C118.05 83.75 117.83 84.07 117.62 84.38C117.4 84.69 117.03 84.89 116.79 85.18C116.55 85.48 116.23 85.69 115.97 85.97C115.71 86.25 115.56 86.62 115.28 86.88C115.01 87.14 114.85 87.54 114.56 87.78C114.27 88.03 113.76 87.99 113.46 88.22C113.16 88.45 112.86 88.67 112.54 88.88C112.22 89.09 111.91 89.28 111.58 89.47C111.25 89.66 110.96 89.9 110.62 90.07C110.28 90.24 110.02 90.57 109.67 90.72C109.32 90.87 108.97 91.02 108.61 91.15C108.25 91.28 107.85 91.27 107.49 91.38C107.13 91.49 106.81 91.79 106.44 91.88C106.07 91.97 105.69 92.02 105.31 92.09C104.94 92.15 104.53 91.96 104.15 92.01C103.78 92.05 103.4 92.05 103.02 92.07C102.64 92.09 102.27 92.04 101.89 92.04C101.51 92.04 101.11 92.21 100.73 92.19C100.34 92.17 99.95 92.18 99.57 92.13C99.18 92.08 98.81 91.95 98.43 91.89C98.05 91.82 97.7 91.61 97.33 91.52C96.95 91.43 96.51 91.58 96.14 91.46C95.77 91.35 95.38 91.27 95.02 91.14C94.66 91.01 94.41 90.59 94.05 90.44C93.69 90.28 93.32 90.18 92.98 90.01C92.63 89.83 92.23 89.77 91.9 89.57C91.57 89.37 91.29 89.08 90.97 88.86C90.65 88.64 90.33 88.42 90.03 88.19C89.72 87.95 89.43 87.71 89.13 87.45C88.84 87.19 88.61 86.88 88.34 86.61C88.07 86.34 87.72 86.01 87.46 85.72C87.2 86.01 87.06 86.54 86.79 86.82C86.52 87.09 86.25 87.39 85.96 87.65C85.67 87.91 85.34 88.13 85.03 88.37C84.72 88.61 84.36 88.78 84.04 89C83.72 89.22 83.43 89.5 83.09 89.69C82.76 89.89 82.39 90.05 82.05 90.23C81.71 90.41 81.27 90.4 80.92 90.56C80.57 90.71 80.21 90.86 79.85 91C79.49 91.13 79.15 91.33 78.77 91.44C78.4 91.55 78.05 91.76 77.67 91.85C77.29 91.94 76.91 92.05 76.53 92.11C76.15 92.18 75.73 92.02 75.34 92.07C74.96 92.11 74.58 92.24 74.19 92.26C73.81 92.28 73.42 92.26 73.02 92.26C72.62 92.26 72.25 92.03 71.87 92.01C71.48 91.99 71.08 92.17 70.7 92.12C70.31 92.07 69.92 92.06 69.54 91.99C69.16 91.92 68.77 91.86 68.39 91.77C68.01 91.68 67.61 91.65 67.24 91.54C66.87 91.43 66.55 91.15 66.19 91.01C65.83 90.88 65.49 90.68 65.14 90.52C64.78 90.36 64.33 90.4 63.99 90.23C63.64 90.05 63.4 89.68 63.07 89.48C62.74 89.28 62.44 89.04 62.12 88.82C61.8 88.6 61.41 88.49 61.1 88.25C60.79 88.01 60.39 87.88 60.1 87.62C59.81 87.36 59.75 86.86 59.47 86.59C59.2 86.32 58.83 86.05 58.58 85.76C58.32 86.05 58.07 86.42 57.79 86.69C57.52 86.96 57.09 87.07 56.8 87.32C56.51 87.58 56.33 87.95 56.02 88.19C55.71 88.43 55.45 88.73 55.13 88.95C54.81 89.17 54.36 89.18 54.03 89.38C53.7 89.58 53.51 90.04 53.17 90.22C52.83 90.4 52.37 90.34 52.01 90.5C51.66 90.65 51.34 90.9 50.98 91.04C50.62 91.17 50.3 91.45 49.93 91.57C49.56 91.68 49.09 91.42 48.71 91.51C48.33 91.6 47.97 91.7 47.59 91.77C47.21 91.84 46.87 92.22 46.49 92.26C46.11 92.3 45.7 92.19 45.31 92.21C44.93 92.23 44.48 92.26 44.09 92.26C43.91 91.76 44.1 91.7 44.1 91.17C44.1 90.64 44.12 90.63 44.12 90.1C44.12 89.57 44.06 89.57 44.06 89.03C44.06 88.49 44.32 88.5 44.32 87.96C44.32 87.42 44.12 87.43 44.12 86.9C44.12 86.37 44.36 86.37 44.36 85.83C44.36 85.29 44.14 85.3 44.14 84.76C44.14 84.22 43.88 84.17 44.07 83.66C44.46 83.66 44.93 83.73 45.31 83.69C45.7 83.65 46.07 83.53 46.45 83.45C46.83 83.37 47.25 83.42 47.62 83.3C47.99 83.18 48.34 82.99 48.69 82.84C49.05 82.68 49.26 82.26 49.59 82.07C49.93 81.88 50.29 81.75 50.6 81.53C50.91 81.3 51.27 81.13 51.55 80.87C51.83 80.6 52.2 80.41 52.45 80.12C52.7 79.82 52.89 79.47 53.1 79.14C53.31 78.81 53.43 78.43 53.59 78.08C53.75 77.73 53.92 77.38 54.03 77.01C54.14 76.64 54.1 76.24 54.16 75.86C54.22 75.48 54.35 75.14 54.35 74.75C54.85 74.57 54.88 74.75 55.41 74.75C55.94 74.75 55.95 74.89 56.48 74.89C57.01 74.89 57.01 74.86 57.55 74.86C58.09 74.86 58.08 74.86 58.62 74.86C59.16 74.86 59.15 74.9 59.68 74.9C60.21 74.9 60.21 74.6 60.75 74.6C61.29 74.6 61.28 74.58 61.82 74.58C62.36 74.58 62.44 74.41 62.94 74.59C62.94 74.98 63.09 75.48 63.15 75.86C63.21 76.24 63 76.68 63.11 77.05C63.22 77.42 63.32 77.82 63.48 78.17C63.64 78.52 63.89 78.84 64.1 79.17C64.31 79.49 64.67 79.71 64.92 80.01C65.17 80.3 65.34 80.67 65.63 80.93C65.91 81.19 66.27 81.36 66.58 81.59C66.89 81.82 67.16 82.11 67.5 82.3C67.83 82.49 68.14 82.76 68.5 82.92C68.85 83.07 69.22 83.23 69.59 83.35C69.95 83.47 70.36 83.51 70.74 83.59C71.11 83.67 71.52 83.64 71.9 83.68C72.28 83.72 72.67 83.84 73.06 83.84C73.45 83.84 73.85 83.86 74.23 83.82C74.62 83.78 75 83.64 75.38 83.57C75.76 83.49 76.06 83.11 76.42 83C76.79 82.88 77.17 82.83 77.52 82.67C77.88 82.51 78.3 82.5 78.63 82.31C78.97 82.12 79.32 81.93 79.63 81.7C79.94 81.47 80.14 81.09 80.41 80.83C80.69 80.56 80.93 80.27 81.17 79.97C81.42 79.67 81.86 79.51 82.06 79.19C82.27 78.86 82.34 78.45 82.5 78.1C82.66 77.75 82.68 77.35 82.79 76.98C82.9 76.61 82.97 76.25 83.02 75.86C83.08 75.48 83.16 74.97 83.16 74.58C83.66 74.4 83.75 74.71 84.29 74.71C84.83 74.71 84.83 74.6 85.36 74.6C85.89 74.6 85.89 74.55 86.43 74.55C86.97 74.55 86.96 74.66 87.5 74.66C88.04 74.66 88.03 74.66 88.56 74.66C89.09 74.66 89.09 74.87 89.63 74.87C90.17 74.87 90.16 74.8 90.69 74.8C91.22 74.8 91.22 74.63 91.72 74.82C91.72 75.21 91.61 75.52 91.67 75.9C91.73 76.28 92.05 76.62 92.16 76.98C92.27 77.35 92.47 77.67 92.63 78.02C92.79 78.37 93.01 78.67 93.21 78.99C93.42 79.31 93.65 79.59 93.89 79.89C94.14 80.18 94.2 80.64 94.49 80.9C94.77 81.16 95.13 81.33 95.44 81.56C95.75 81.79 96.12 81.9 96.46 82.1C96.79 82.29 97.14 82.41 97.5 82.57C97.85 82.72 98.17 82.92 98.54 83.04C98.9 83.16 99.26 83.26 99.65 83.34C100.02 83.42 100.4 83.39 100.79 83.43C101.17 83.47 101.54 83.63 101.93 83.63C102.32 83.63 102.7 83.62 103.08 83.58C103.47 83.54 103.84 83.46 104.22 83.39C104.6 83.31 105.03 83.39 105.39 83.28C105.76 83.16 106.08 82.89 106.43 82.74C106.79 82.58 107.1 82.37 107.44 82.18C107.78 81.99 108.01 81.67 108.32 81.45C108.63 81.22 108.94 81.02 109.22 80.76C109.5 80.49 109.79 80.26 110.04 79.96C110.29 79.66 110.79 79.54 111 79.22C111.21 78.89 111.36 78.51 111.52 78.16C111.68 77.81 111.56 77.35 111.67 76.98C111.78 76.61 112.18 76.3 112.24 75.91C112.3 75.53 112.03 74.91 112.03 74.52C112.53 74.34 112.64 74.88 113.18 74.88C113.72 74.88 113.72 74.86 114.25 74.86C114.78 74.86 114.78 74.93 115.32 74.93C115.85 74.93 115.85 74.63 116.39 74.63C116.92 74.63 116.92 74.91 117.45 74.91C117.98 74.91 117.98 74.93 118.52 74.93C119.05 74.93 119.05 74.57 119.59 74.58C120.12 74.58 120.2 74.43 120.7 74.61C120.7 74.99 120.68 75.49 120.66 75.87L120.6 75.86ZM120.73 70.87C120.36 71.25 120.06 70.95 119.53 70.95C119 70.95 119 70.62 118.46 70.62C117.92 70.62 117.93 70.59 117.39 70.59C116.85 70.59 116.86 70.62 116.33 70.62C115.94 70.62 115.56 70.62 115.17 70.59C114.78 70.57 114.4 70.5 114.02 70.46C113.63 70.41 113.2 70.69 112.82 70.62C112.44 70.55 112.09 70.3 111.71 70.21C111.33 70.12 111.01 69.85 110.64 69.73C110.27 69.62 109.91 69.49 109.55 69.35C109.19 69.22 108.83 69.1 108.47 68.94C108.11 68.78 107.62 68.93 107.27 68.75C106.92 68.57 106.74 68.1 106.41 67.9C106.08 67.7 105.79 67.45 105.47 67.23C105.15 67.01 104.68 67.01 104.37 66.77C104.06 66.53 103.67 66.39 103.38 66.13C103.09 65.87 103.07 65.33 102.79 65.06C102.52 64.79 102.12 64.75 101.87 64.46C101.61 64.75 101.42 64.98 101.14 65.26C100.87 65.53 100.37 65.56 100.08 65.82C99.79 66.08 99.77 66.66 99.46 66.9C99.15 67.14 98.6 67.04 98.28 67.26C97.96 67.48 97.8 67.94 97.46 68.14C97.13 68.34 96.78 68.53 96.44 68.71C96.1 68.89 95.77 69.12 95.41 69.28C95.06 69.43 94.56 69.24 94.19 69.37C93.83 69.5 93.49 69.7 93.12 69.81C92.75 69.92 92.43 70.23 92.05 70.32C91.67 70.41 91.24 70.24 90.86 70.31C90.48 70.38 90.13 70.62 89.74 70.66C89.36 70.7 88.97 70.69 88.58 70.72C88.2 70.74 87.81 70.74 87.42 70.74C87.03 70.74 86.64 70.81 86.25 70.78C85.86 70.76 85.47 70.74 85.08 70.7C84.69 70.65 84.35 70.31 83.97 70.25C83.59 70.18 83.17 70.3 82.8 70.21C82.42 70.12 82.09 69.88 81.72 69.77C81.35 69.66 80.91 69.74 80.55 69.61C80.19 69.48 79.82 69.34 79.47 69.18C79.11 69.02 78.88 68.61 78.54 68.44C78.19 68.26 77.67 68.4 77.34 68.21C77.01 68.01 76.77 67.65 76.45 67.44C76.13 67.22 75.79 67.02 75.49 66.78C75.18 66.54 74.97 66.19 74.68 65.94C74.39 65.68 73.93 65.6 73.66 65.33C73.39 65.06 73.23 64.53 72.98 64.24C72.72 64.53 72.48 64.97 72.21 65.24C71.94 65.51 71.75 65.89 71.45 66.14C71.16 66.4 70.73 66.49 70.42 66.73C70.11 66.97 69.85 67.27 69.53 67.49C69.21 67.71 68.76 67.71 68.42 67.91C68.09 68.11 67.76 68.29 67.41 68.47C67.07 68.65 66.73 68.82 66.38 68.98C66.03 69.13 65.77 69.53 65.4 69.66C65.04 69.79 64.67 69.95 64.3 70.06C63.93 70.17 63.47 69.97 63.1 70.06C62.72 70.15 62.39 70.42 62.01 70.49C61.63 70.56 61.25 70.69 60.87 70.74C60.49 70.78 60.09 70.81 59.71 70.84C59.33 70.86 58.93 70.71 58.54 70.71C58.15 70.71 57.77 70.65 57.38 70.62C56.99 70.6 56.6 70.64 56.22 70.6C55.83 70.55 55.48 70.34 55.1 70.27C54.72 70.2 54.33 70.21 53.95 70.12C53.57 70.03 53.2 69.95 52.83 69.84C52.46 69.73 52.06 69.7 51.7 69.57C51.34 69.44 50.96 69.32 50.61 69.16C50.25 69 49.9 68.84 49.55 68.67C49.2 68.49 48.83 68.35 48.5 68.16C48.17 67.96 48.01 67.49 47.69 67.28C47.37 67.06 46.99 66.93 46.69 66.7C46.38 66.46 46.11 66.2 45.82 65.94C45.53 65.68 45.14 65.54 44.87 65.26C44.6 64.99 44.35 64.84 44.09 64.55C43.83 64.84 43.64 65.04 43.37 65.32C43.1 65.59 42.88 65.94 42.58 66.19C42.29 66.45 41.94 66.65 41.63 66.88C41.32 67.12 41.05 67.42 40.73 67.63C40.41 67.85 39.97 67.89 39.64 68.09C39.31 68.29 39.04 68.61 38.69 68.79C38.35 68.97 37.87 68.88 37.52 69.03C37.17 69.19 36.8 69.3 36.44 69.44C36.08 69.57 35.71 69.67 35.34 69.78C34.97 69.89 34.66 70.22 34.28 70.31C33.9 70.4 33.48 70.26 33.1 70.33C32.72 70.4 32.36 70.56 31.97 70.61C31.59 70.65 31.19 70.52 30.8 70.54C30.42 70.56 29.92 70.83 29.53 70.83C29.35 70.33 29.45 70.25 29.45 69.72C29.45 69.19 29.76 69.18 29.76 68.65C29.76 68.12 29.78 68.12 29.78 67.58C29.78 67.04 29.42 67.05 29.42 66.51C29.42 65.97 29.55 65.98 29.55 65.45C29.55 64.92 29.7 64.92 29.7 64.38C29.7 63.84 29.75 63.85 29.75 63.31C29.75 62.77 29.57 62.78 29.75 62.28C30.14 62.28 30.41 62.09 30.79 62.05C31.18 62.01 31.6 62.21 31.97 62.13C32.35 62.05 32.7 61.83 33.06 61.71C33.43 61.59 33.76 61.37 34.11 61.22C34.47 61.06 34.87 61.01 35.2 60.82C35.54 60.63 35.72 60.21 36.03 59.99C36.34 59.76 36.85 59.78 37.13 59.52C37.41 59.25 37.74 59 37.98 58.71C38.23 58.41 38.44 58.06 38.65 57.74C38.86 57.41 39.01 57.04 39.17 56.69C39.33 56.34 39.46 55.96 39.57 55.59C39.68 55.22 39.57 54.8 39.62 54.42C39.68 54.04 39.77 53.58 39.77 53.19C40.35 53 40.41 53.36 41.01 53.36C41.61 53.36 41.62 53.49 42.22 53.49C42.82 53.49 42.83 53.39 43.43 53.39C44.03 53.39 44.03 53.12 44.64 53.12C45.25 53.12 45.45 53.75 45.9 53.35C46.3 53 45.8 52.76 45.8 52.23C45.8 51.7 45.93 51.7 45.93 51.17C45.93 50.64 46 50.64 46 50.11C46 49.74 45.94 49.37 45.97 49C46 48.63 46.13 48.28 46.19 47.91C46.24 47.54 46.09 47.14 46.16 46.78C46.24 46.42 46.56 46.12 46.66 45.76C46.77 45.4 46.65 44.98 46.78 44.63C46.91 44.28 46.95 43.89 47.11 43.55C47.27 43.21 47.59 42.95 47.77 42.63C47.95 42.3 48.14 41.99 48.34 41.67C48.54 41.36 48.75 41.05 48.97 40.75C49.19 40.45 49.45 40.18 49.69 39.9C49.93 39.62 50.3 39.46 50.56 39.2C50.82 38.94 51.11 38.72 51.39 38.47C51.67 38.23 51.92 37.97 52.22 37.75C52.52 37.53 52.67 37.11 52.98 36.9C53.29 36.7 53.56 36.41 53.89 36.23C54.21 36.05 54.55 35.86 54.89 35.7C55.23 35.55 55.68 35.65 56.03 35.52C56.38 35.39 56.72 35.27 57.08 35.16C57.43 35.06 57.82 35.1 58.19 35.03C58.55 34.95 58.88 34.73 59.25 34.68C59.62 34.63 59.98 34.58 60.36 34.55C60.73 34.52 61.1 34.33 61.47 34.33C61.84 34.33 62.21 34.61 62.58 34.63C62.95 34.66 63.33 34.57 63.7 34.63C64.07 34.68 64.4 34.91 64.76 34.98C65.12 35.06 65.45 35.23 65.81 35.33C66.17 35.44 66.61 35.25 66.96 35.38C67.31 35.51 67.62 35.75 67.95 35.9C68.29 36.06 68.65 36.17 68.97 36.34C69.3 36.52 69.56 36.8 69.87 37C70.18 37.2 70.53 37.35 70.83 37.57C71.13 37.79 71.41 38.04 71.69 38.28C71.97 38.52 72.37 38.65 72.63 38.91C72.89 39.17 72.93 39.65 73.17 39.93C73.41 40.21 73.81 40.37 74.03 40.66C74.25 40.96 74.43 41.29 74.64 41.6C74.84 41.91 74.98 42.26 75.16 42.59C75.34 42.91 75.71 43.15 75.86 43.49C76.01 43.83 75.92 44.28 76.05 44.63C76.18 44.98 76.38 45.3 76.48 45.66C76.58 46.01 76.78 46.35 76.86 46.72C76.94 47.08 76.75 47.49 76.81 47.86C76.86 48.23 77.05 48.58 77.08 48.95C77.11 49.32 77.04 49.69 77.04 50.07C77.04 50.6 76.88 50.6 76.88 51.13C76.88 51.66 77.26 51.66 77.26 52.19C77.26 52.72 76.89 52.74 76.96 53.26C76.97 53.33 77.19 53.18 77.21 53.25C77.21 53.65 77.14 54.05 77.19 54.44C77.25 54.83 77.39 55.22 77.5 55.59C77.62 55.97 77.66 56.39 77.83 56.75C78 57.11 78.18 57.49 78.39 57.82C78.6 58.15 79.16 58.23 79.41 58.53C79.67 58.83 79.71 59.33 80.01 59.59C80.3 59.85 80.6 60.14 80.92 60.37C81.24 60.6 81.66 60.68 82.01 60.88C82.35 61.07 82.64 61.18 83.01 61.33C83.21 60.81 82.92 60.8 82.92 60.24C82.92 59.68 83.2 59.68 83.2 59.12C83.2 58.56 82.92 58.56 82.92 58.01C82.92 57.46 83.21 57.45 83.21 56.9C83.21 56.35 83.23 56.35 83.23 55.79C83.23 55.23 82.97 55.23 82.97 54.68C82.97 54.13 82.94 54.13 82.94 53.57C82.94 53.01 82.99 53.01 82.99 52.46C82.99 51.91 83.24 51.91 83.24 51.35C83.24 50.79 83.03 50.8 83.03 50.24C83.03 49.68 82.86 49.68 82.86 49.13C82.86 48.58 82.88 48.58 82.88 48.02C82.88 47.64 83.03 47.26 83.06 46.89C83.08 46.51 83.33 46.16 83.37 45.78C83.42 45.4 83.42 45.03 83.48 44.66C83.55 44.29 83.53 43.9 83.62 43.54C83.71 43.17 83.67 42.76 83.78 42.41C83.89 42.05 83.99 41.67 84.12 41.32C84.25 40.97 84.72 40.75 84.87 40.41C85.03 40.07 85.07 39.68 85.25 39.34C85.43 39.01 85.44 38.57 85.63 38.25C85.83 37.93 86.25 37.75 86.46 37.44C86.67 37.13 86.66 36.65 86.89 36.35C87.12 36.05 87.53 35.89 87.78 35.61C88.03 35.33 88.18 34.94 88.44 34.67C88.71 34.4 89.18 34.35 89.46 34.1C89.74 33.85 90.06 33.65 90.35 33.42C90.65 33.19 90.84 32.83 91.15 32.61C91.46 32.4 91.7 32.07 92.02 31.87C92.34 31.67 92.74 31.6 93.08 31.43C93.41 31.25 93.72 31.01 94.06 30.85C94.4 30.7 94.87 30.85 95.22 30.71C95.57 30.58 95.85 30.24 96.21 30.13C96.57 30.02 96.97 30.06 97.34 29.97C97.7 29.88 98.03 29.62 98.41 29.55C98.78 29.48 99.14 29.32 99.52 29.28C99.89 29.24 100.28 29.26 100.66 29.24C101.03 29.22 101.42 29.5 101.8 29.5C102.18 29.5 102.57 29.16 102.94 29.18C103.32 29.2 103.67 29.51 104.04 29.56C104.42 29.61 104.83 29.39 105.2 29.45C105.57 29.52 105.87 29.94 106.23 30.03C106.6 30.12 106.98 30.14 107.33 30.25C107.69 30.36 108.12 30.27 108.47 30.4C108.82 30.53 109.2 30.64 109.54 30.8C109.88 30.96 110.05 31.46 110.39 31.64C110.72 31.82 111.04 31.99 111.37 32.19C111.69 32.39 112.18 32.32 112.49 32.54C112.8 32.75 113.14 32.95 113.43 33.18C113.73 33.41 113.96 33.73 114.24 33.98C114.52 34.23 114.65 34.64 114.92 34.91C115.19 35.18 115.5 35.39 115.75 35.68C116 35.96 116.25 36.24 116.49 36.53C116.72 36.83 117.1 37.02 117.31 37.33C117.52 37.64 117.8 37.92 118 38.24C118.2 38.56 118.16 39.02 118.34 39.35C118.52 39.68 118.68 40.02 118.84 40.36C119 40.7 118.96 41.12 119.1 41.47C119.23 41.82 119.65 42.07 119.77 42.43C119.88 42.79 120.05 43.14 120.14 43.51C120.23 43.87 120.12 44.29 120.19 44.66C120.26 45.03 120.48 45.38 120.53 45.76C120.57 46.13 120.29 46.54 120.31 46.91C120.33 47.28 120.53 47.65 120.53 48.03C120.53 48.61 120.68 48.61 120.69 49.18C120.69 49.76 120.42 49.76 120.42 50.34C120.42 50.92 120.61 50.92 120.61 51.49C120.61 52.06 120.64 52.06 120.64 52.64C120.64 53.22 120.36 53.22 120.36 53.79C120.36 54.36 120.54 54.36 120.54 54.94C120.54 55.52 120.4 55.51 120.4 56.09C120.4 56.67 120.37 56.67 120.37 57.24C120.37 57.81 120.55 57.81 120.55 58.39C120.55 58.97 120.65 58.96 120.65 59.54C120.65 60.12 120.38 60.11 120.38 60.69C120.38 61.27 120.58 61.26 120.58 61.83C120.58 62.4 120.48 62.4 120.48 62.97C120.48 63.54 120.71 63.54 120.71 64.12C120.71 64.7 120.33 64.69 120.32 65.26C120.32 65.27 120.59 65.26 120.59 65.26C120.58 65.81 120.46 65.81 120.46 66.36C120.46 66.91 120.29 66.91 120.29 67.46C120.29 68.01 120.35 68.01 120.35 68.56C120.35 69.11 120.71 69.11 120.71 69.66C120.71 70.21 121.02 70.49 120.63 70.88L120.73 70.87Z" fill="#E4C224"/>
<path d="M112.18 59.1199C112.18 58.5599 112.22 58.5599 112.22 58.0099C112.22 57.4599 112.07 57.4499 112.07 56.8999C112.07 56.3499 111.95 56.3499 111.95 55.7899C111.95 55.2299 111.87 55.2299 111.87 54.6799C111.87 54.1299 112.15 54.1299 112.15 53.5699C112.15 53.0099 111.87 53.0099 111.87 52.4599C111.87 51.9099 112.16 51.9099 112.16 51.3499C112.16 50.7899 112.18 50.7999 112.18 50.2399C112.18 49.6799 111.93 49.6799 111.93 49.1299C111.93 48.5799 111.9 48.5799 111.9 48.0199C111.9 47.6399 111.93 47.2699 111.9 46.8899C111.86 46.5099 112.04 46.0899 111.96 45.7199C111.88 45.3499 111.56 45.0299 111.44 44.6799C111.31 44.3199 111.02 44.0499 110.85 43.7099C110.68 43.3699 110.53 43.0499 110.33 42.7299C110.13 42.4099 110.03 42.0299 109.79 41.7299C109.55 41.4299 109.45 41.0099 109.18 40.7399C108.91 40.4699 108.58 40.2499 108.28 40.0099C107.98 39.7699 107.61 39.6299 107.29 39.4299C106.97 39.2299 106.57 39.1799 106.23 39.0199C105.89 38.8599 105.54 38.7499 105.18 38.6199C104.82 38.4999 104.56 38.0599 104.18 37.9699C103.81 37.8899 103.41 37.9499 103.03 37.8999C102.66 37.8599 102.27 38.0399 101.89 38.0399C101.51 38.0399 101.12 37.7999 100.74 37.8399C100.36 37.8799 100.04 38.2399 99.68 38.3199C99.31 38.3999 98.9 38.3099 98.54 38.4299C98.18 38.5599 97.9 38.8499 97.56 39.0099C97.22 39.1799 96.75 39.1099 96.43 39.3099C96.11 39.5099 95.76 39.6999 95.46 39.9399C95.16 40.1799 94.99 40.5699 94.72 40.8299C94.45 41.0899 94.31 41.4699 94.08 41.7699C93.84 42.0699 93.52 42.2899 93.31 42.6099C93.11 42.9299 93.01 43.2999 92.84 43.6399C92.68 43.9799 92.24 44.2199 92.11 44.5799C91.99 44.9399 92.09 45.3699 92.01 45.7499C91.93 46.1199 91.72 46.4699 91.68 46.8499C91.64 47.2199 91.8 47.6199 91.8 47.9999C91.8 48.5599 91.9 48.5599 91.9 49.1199C91.9 49.6799 91.84 49.6799 91.84 50.2399C91.84 50.7999 91.55 50.7999 91.55 51.3499C91.55 51.8999 91.9 51.9099 91.9 52.4599C91.9 53.0099 91.63 53.0099 91.63 53.5699C91.63 54.1299 91.91 54.1299 91.91 54.6799C91.91 55.2299 91.55 55.2299 91.55 55.7899C91.55 56.3499 91.64 56.3499 91.64 56.8999C91.64 57.4499 91.87 57.4499 91.87 58.0099C91.87 58.5699 91.92 58.5599 91.92 59.1199C91.92 59.6799 91.54 59.6799 91.54 60.2299C91.54 60.7799 91.36 60.8899 91.56 61.4099C91.93 61.2599 92.42 60.9099 92.76 60.7299C93.11 60.5399 93.41 60.2999 93.72 60.0699C94.04 59.8399 94.4 59.6799 94.69 59.4199C94.98 59.1499 95.42 59.0199 95.67 58.7199C95.93 58.4199 96.11 58.0499 96.33 57.7199C96.55 57.3899 96.73 57.0299 96.89 56.6699C97.06 56.3099 97.03 55.8799 97.14 55.5099C97.25 55.1399 97.26 54.7599 97.32 54.3699C97.38 53.9799 97.63 53.6599 97.63 53.2599C98.13 53.0699 98.15 53.2599 98.69 53.2599C99.23 53.2599 99.23 53.4499 99.76 53.4499C100.29 53.4499 100.29 53.1399 100.83 53.1399C101.37 53.1399 101.36 53.0799 101.9 53.0799C102.44 53.0799 102.43 53.2699 102.96 53.2699C103.49 53.2699 103.49 53.0999 104.03 53.0999C104.57 53.0999 104.56 53.4299 105.1 53.4299C105.64 53.4299 105.66 53.0599 106.16 53.2499C106.16 53.6499 106.16 54.0399 106.21 54.4299C106.27 54.8199 106.21 55.2599 106.32 55.6299C106.44 56.0099 106.94 56.2399 107.1 56.5899C107.27 56.9499 107.2 57.4299 107.41 57.7599C107.62 58.0899 107.95 58.3499 108.21 58.6499C108.47 58.9499 108.67 59.3099 108.97 59.5699C109.26 59.8299 109.61 60.0499 109.93 60.2799C110.25 60.5099 110.54 60.8199 110.89 61.0099C111.23 61.1999 111.88 61.2799 112.24 61.4399C112.44 60.9199 111.86 60.8099 111.86 60.2499C111.86 59.6899 112.17 59.6899 112.17 59.1299L112.18 59.1199Z" fill="#E4C224"/>
<path d="M68.44 51.2201C68.44 50.6401 68.58 50.6401 68.58 50.0601C68.58 49.6801 68.46 49.3301 68.4 48.9701C68.34 48.6001 68.56 48.1601 68.44 47.8101C68.32 47.4601 67.97 47.1901 67.8 46.8601C67.63 46.5301 67.55 46.1301 67.34 45.8301C67.12 45.5301 66.74 45.3701 66.48 45.1001C66.22 44.8401 65.88 44.6901 65.58 44.4701C65.28 44.2501 65.02 44.0201 64.69 43.8501C64.36 43.6801 64.13 43.2701 63.77 43.1501C63.42 43.0401 62.98 43.2901 62.61 43.2301C62.25 43.1701 61.91 42.8701 61.53 42.8701C61.15 42.8701 60.81 43.1801 60.45 43.2301C60.08 43.2901 59.64 43.0301 59.29 43.1401C58.94 43.2601 58.61 43.4901 58.28 43.6501C57.95 43.8201 57.76 44.2101 57.46 44.4301C57.16 44.6501 56.93 44.9101 56.66 45.1701C56.4 45.4301 55.87 45.4701 55.65 45.7701C55.43 46.0701 55.23 46.4101 55.06 46.7401C54.89 47.0701 55.04 47.5401 54.93 47.8901C54.82 48.2401 54.78 48.5901 54.72 48.9601C54.66 49.3201 54.54 49.6601 54.54 50.0401C54.54 50.6101 54.33 50.6101 54.33 51.1801C54.33 51.7501 54.41 51.7501 54.41 52.3201C54.41 52.8901 54.43 52.8901 54.43 53.4601C54.43 54.0301 54.62 54.0301 54.62 54.6001C54.62 55.1701 54.7 55.1701 54.7 55.7401C54.7 56.3101 54.45 56.3101 54.45 56.8801C54.45 57.4501 54.45 57.4501 54.45 58.0101C54.45 58.5701 54.26 58.5801 54.26 59.1501C54.26 59.7201 54.57 59.7201 54.57 60.2801C54.57 60.8401 54.49 60.8301 54.63 61.3701C54.95 61.5001 55.12 61.6801 55.46 61.7801C55.79 61.8801 56.17 61.7901 56.52 61.8601C56.86 61.9201 57.17 62.3001 57.52 62.3301C57.87 62.3601 58.23 62.2001 58.59 62.2001C58.97 62.2001 59.36 62.2701 59.73 62.2401C60.11 62.2001 60.47 62.0501 60.84 61.9701C61.21 61.9001 61.53 61.6601 61.89 61.5501C62.25 61.4401 62.58 61.2801 62.92 61.1401C63.27 60.9901 63.76 61.1401 64.08 60.9501C64.41 60.7601 64.67 60.4501 64.97 60.2301C65.28 60.0101 65.44 59.6201 65.72 59.3701C66 59.1201 66.45 59.0301 66.69 58.7501C66.94 58.4701 66.93 57.9901 67.14 57.6801C67.35 57.3701 67.71 57.1601 67.88 56.8201C68.05 56.4801 68.04 56.0801 68.16 55.7301C68.28 55.3701 68.66 55.0701 68.73 54.7001C68.76 54.1201 68.78 54.1101 68.78 53.5301C68.78 52.9501 68.6 52.9501 68.6 52.3701C68.6 51.7901 68.45 51.7901 68.45 51.2101L68.44 51.2201Z" fill="#E4C224"/>
<path d="M175.62 47.68L175.55 48.6L175.68 49.65L175.48 51.95L175.55 53.59L175.68 54.12V57.6L175.42 58.65L175.55 60.16L175.42 61.87L175.55 63.64V64.43L175.42 65.68L175.75 67.13L175.55 69.3L175.81 70.48L175.55 72.45L175.68 73.7L175.55 76.46L175.75 77.31L175.55 79.74V80.99L175.68 81.25L175.55 83.35L175.75 84.07C175.55 85.25 175.22 85.91 174.9 86.5C174.44 87.22 173.78 87.42 172.99 87.55L172.46 87.35H168.78C168.58 87.35 168.39 87.42 168.25 87.42C167.99 87.42 167.79 87.35 167.4 87.16C166.87 86.77 166.68 86.5 166.28 85.98C166.21 85.78 166.08 85.45 166.08 85.26C166.08 85.13 166.08 85.06 166.28 83.35L166.08 82.5L166.28 80.13L166.08 78.82L166.21 78.29L166.01 76.52L166.14 75.67V73.83L166.01 72.12L166.14 71L166.01 69.88V67.58C165.94 67.38 165.75 67.25 165.35 66.92C165.22 66.79 165.15 66.72 165.02 66.72C164.89 66.72 164.76 66.79 164.63 66.92L162.2 66.66L161.54 66.73C161.41 66.73 161.28 66.66 161.15 66.66C160.56 66.66 159.7 67.19 159.7 67.91C159.7 67.98 159.77 68.04 159.77 68.11L159.64 69.1L159.9 71.33L159.77 72.84L159.84 73.43V75.8L159.58 76.85L159.78 78.03V80.86L159.58 82.11L159.84 83.69L159.77 85.53C159.57 86.06 159.18 86.65 158.72 87.11C158.33 87.44 157.93 87.57 157.54 87.57L157.21 87.5L156.09 87.63H153.86C152.22 87.3 151.76 87.37 151.43 87.3C150.38 86.05 150.31 85.39 150.31 84.93V81.32L150.18 79.15L150.05 78.23L150.31 75.8L149.98 75.01L150.31 72.58V71.33L150.18 71.13L150.31 68.76V66.46L150.11 64.82L150.5 63.51V61.41L150.24 61.08L150.37 58.12L150.24 57.27L150.31 55.56L150.11 55.1L150.18 53.13L150.05 52.47L150.25 49.84L150.51 49.12L150.31 46.82V45.9C150.31 45.44 150.31 45.18 150.18 44.59C150.31 44.26 150.38 43.74 150.64 42.75C150.64 42.29 150.9 41.7 150.9 41.04L151.16 39.92C151.42 39.66 151.55 39.33 151.95 38.67C152.08 38.41 152.21 38.28 152.48 38.01C153.01 37.75 153.33 36.96 153.53 36.37C154.06 36.37 154.19 35.58 154.52 35.58C154.98 35.38 155.31 35.32 155.77 34.92C156.3 34.79 156.43 34.33 157.02 34.07C157.61 33.74 158.27 33.68 158.73 33.48C158.93 33.48 159.06 33.41 159.26 33.41C159.46 33.41 159.59 33.48 159.85 33.54C160.38 33.21 161.43 33.01 162.41 32.75H163C163.33 32.75 163.66 32.75 164.18 33.01C164.38 32.81 164.84 32.94 165.36 32.75C166.35 33.54 167.13 33.34 167.86 33.8L169.11 34.33C169.77 34.86 170.88 35.12 171.41 35.91C173.05 37.42 173.25 37.75 173.51 38.08L173.84 38.34C174.17 38.87 174.3 39.65 174.56 39.79C174.76 40.58 174.82 41.17 174.95 41.5C175.08 41.89 175.28 42.16 175.28 42.68C175.28 43.01 175.67 43.86 175.67 44.06C175.67 44.45 175.34 44.91 175.34 45.64L175.6 47.68H175.62ZM159.79 56.81L160.18 57.2C160.25 57.66 160.71 58.12 161.3 58.12L163.01 57.99H164.85C165.51 57.79 166.03 57.2 166.03 56.68L166.29 56.15L166.09 53.46L166.29 52.21L165.96 49.84L165.89 48L166.02 46.42L165.89 45.5C166.02 45.37 166.02 45.11 166.02 44.91C166.02 44.58 165.95 44.25 165.82 43.92C165.69 43.59 165.62 43.46 165.62 43.2C165.29 43.13 164.7 42.41 164.31 42.21C163.98 42.14 163.65 41.95 163.39 41.95C163.32 41.95 163.19 41.95 163.13 42.02C162.54 42.02 162.28 42.09 162.01 42.09C161.29 42.16 161.09 42.68 160.96 42.88C160.43 43.21 160.17 43.73 159.78 44.52C159.78 44.98 159.85 45.18 159.85 45.57L160.05 46.16L159.66 48.85L159.86 53.91L159.66 54.9L159.86 56.35L159.79 56.81Z" fill="white"/>
<path d="M189.22 37.62L189.29 38.54L189.16 40.97L189.29 42.15L189.16 42.94L189.36 44.98L189.29 45.97V47.42L189.09 49.26L189.22 51.1V51.76L189.42 53.07L189.16 53.92L189.42 55.43L189.22 59.24L189.42 60.95L189.22 64.17L189.35 67.19L189.22 68.64L189.35 69.17L189.48 70.81L189.15 72.58L189.41 73.5L189.08 75.47L189.34 77.11L190 78.03C190.2 78.1 190.59 78.23 192.04 78.23L192.96 77.97L194.93 78.23L195.39 78.36C195.72 78.29 196.18 78.23 196.51 78.23C196.71 78.23 196.9 78.23 197.04 78.3C197.43 78.43 198.22 79.02 198.22 79.48C198.29 79.61 198.35 80.2 198.48 80.79L198.61 81.51L198.41 83.61L198.48 85.58C198.35 85.78 197.95 86.11 197.95 86.3C197.75 86.83 197.62 87.02 197.03 87.29L195.98 87.68L193.61 87.42L193.22 87.55L191.38 87.48L190.46 87.68L188.03 87.48H186.78L186.12 87.41L184.35 87.8L181.98 87.67C181.52 87.28 181.26 87.28 180.86 86.82C180.66 86.62 180.27 86.62 180.2 86.23C179.81 86.1 179.74 85.7 179.74 85.31V84.98L179.94 83.86L179.41 82.22L179.87 80.18L179.61 78.67L179.68 76.96L179.94 76.57L179.81 74.93L179.94 73.94L179.68 72.63L179.81 70.4L179.74 68.49L179.54 66.91L179.74 66.52L179.61 63.69L179.87 62.38L179.74 60.08L179.81 59.03L179.68 58.18L179.61 56.27L179.68 54.63L179.42 53.58L179.75 51.28L179.82 50.36L179.43 48.91L179.82 46.81L179.62 44.58L179.82 43.4L179.69 41.03L179.89 40.11L179.76 37.61L179.89 36.49C179.82 36.29 179.82 36.1 179.82 35.9C179.82 35.57 179.89 35.37 180.08 34.98C180.08 34.52 180.21 33.93 180.8 33.86C181.26 33.53 181.59 33.33 181.98 33.33C182.11 33.33 182.18 33.4 182.31 33.4L183.69 33.47L186.45 33.21C186.84 33.21 187.7 33.41 188.03 33.67C188.16 33.87 188.42 33.87 188.42 34.33C188.95 34.53 189.41 35.12 189.41 35.84L189.21 37.61L189.22 37.62Z" fill="white"/>
<path d="M198.74 33.2899L199.07 33.1599L201.24 33.4199L202.42 33.2199L204.46 33.4799L205.84 33.3499L206.37 33.5499H209.06L211.95 33.2899L212.21 33.4899L213.92 33.1599L215.76 33.2299C216.29 33.2999 217.21 33.4299 217.53 33.8199C217.86 33.9499 217.92 34.4799 218.12 34.5399C218.38 35.0699 218.38 35.5299 218.51 35.7199V37.0299L218.38 38.2799V40.5799L218.18 41.1699C218.05 41.5599 217.85 41.7599 217.59 42.0199C217.13 42.4799 216.28 42.3499 216.01 42.6099L214.3 42.4099L212.59 42.5399C212.33 42.6099 211.93 42.6099 211.6 42.7399C211.27 42.8699 211.21 43.5299 211.14 44.1199L211.01 45.3699V48.0599L211.14 50.4899V51.9399L211.01 52.7899L211.21 53.9699L210.95 55.4799L211.15 57.0599L210.95 59.0299L211.08 60.2099L210.88 62.4399L211.21 64.2099L211.08 65.6599L211.21 67.1699L211.08 69.2699V70.2599L210.95 71.7099L211.21 73.2899L211.08 74.7999L211.34 75.4599L211.01 78.0199L211.08 79.9899L210.95 81.8299L211.15 83.8699L211.02 85.3799C210.89 85.7099 210.82 85.9699 210.49 86.2999C210.42 86.6899 209.9 87.0899 209.64 87.2199C209.31 87.4199 208.85 87.6099 208.52 87.6099L206.81 87.6799L204.51 87.4199C204.05 87.5499 203.72 87.4199 203.33 87.6199C202.61 87.1599 202.15 86.3699 201.95 86.1099C201.82 85.7199 201.56 85.3899 201.56 84.9299L201.49 83.8799L201.82 79.3499L201.56 77.8399L201.69 76.5899L201.56 73.0399L201.63 72.0499L201.43 70.7399L201.5 68.8299L201.76 67.1199L201.63 65.3499L201.76 64.6899L201.5 63.6999V60.2199L201.43 58.9699L201.63 57.3899L201.7 56.0099L201.37 54.4299L201.7 52.7199L201.5 51.4099V49.1799L201.63 48.1299L201.56 46.4899L201.69 45.3699L201.62 43.9899L201.55 43.5999C201.29 43.0099 200.89 42.6099 200.5 42.6099C200.37 42.6099 200.24 42.6799 200.11 42.7399L198.53 42.8699L196.49 42.3399L196.1 42.4699C195.71 42.3999 195.11 41.7499 194.52 41.2899C194.45 41.0299 194.32 40.7599 194.32 40.4399C194.32 40.3099 194.32 40.1099 194.39 39.9799L194.19 38.0099L194.39 37.3499V35.1199L194.52 34.5899C194.72 34.1999 195.24 33.4699 196.03 33.4699C196.29 33.3999 196.49 33.3399 196.75 33.3399H197.08L198.72 33.2699L198.74 33.2899Z" fill="white"/>
<path d="M234.22 78.0301H236.26L237.64 78.1601L238.43 78.4201C238.69 78.2901 238.89 78.2901 239.09 78.2901C239.55 78.2901 239.88 78.4901 240.01 78.6201C240.27 79.1501 240.8 79.4101 240.86 79.8701C240.93 80.0001 240.93 80.2001 240.93 80.3301C240.93 80.5301 240.93 80.7201 240.8 80.9201L241 82.5601L240.8 82.9501L240.87 84.7901C240.87 84.8601 240.94 84.9201 240.94 84.9901C240.94 85.5201 240.48 86.5001 240.28 86.7601C240.08 86.8901 239.75 87.2901 239.29 87.4201C239.03 87.4901 238.76 87.4901 238.3 87.6201H237.12L235.61 87.2901L233.9 87.4901L232.72 87.3601L231.21 87.4901H229.44L228.98 87.1601L226.29 87.4901L225.11 87.2301L223.4 87.4301C223.2 87.4301 222.87 87.3001 222.81 87.3001C222.48 87.1701 222.28 86.7701 221.96 86.5801C221.57 85.9901 221.24 85.5901 221.17 85.1301L221.37 82.9001L221.57 82.6401L221.37 80.2101L221.5 79.6201L221.37 77.7801L221.57 77.2501L221.18 74.3601L221.31 72.1901V70.9401L221.51 68.4401L221.38 67.0601L221.51 66.4001L221.25 64.6301L221.51 63.9101L221.38 62.0001L221.25 61.6101V58.9801L221.38 56.8101L221.58 55.7601L221.38 54.9101L221.51 53.0001V50.0401L221.38 49.5101L221.58 48.2601L221.19 45.5701L221.58 43.3401L221.25 41.7001L221.64 40.6501L221.25 38.0901L221.58 36.7101L221.32 35.2601C221.52 34.8001 221.52 34.4701 221.78 34.2101C222.17 33.9501 222.5 33.6801 223.09 33.4901C223.22 33.4201 223.35 33.3601 223.48 33.3601C223.61 33.3601 223.74 33.4301 223.81 33.4901L225.52 33.1001L226.44 33.5601L227.95 33.3001H230.12L230.84 33.2301L232.48 33.3601L233.2 33.2301L235.7 33.4901L237.01 33.3601L237.73 33.4901C238.12 33.2901 238.45 33.1601 238.72 33.1601C239.05 33.1601 239.31 33.3601 239.64 33.6901C239.97 33.7601 240.36 34.0801 240.43 34.2801C240.96 34.7401 240.89 35.2701 241.02 35.8601L240.82 36.7101L241.08 39.1401L241.01 40.3201L241.08 40.5801C240.95 41.1101 240.55 41.6301 240.23 41.8301C239.57 42.2901 238.92 42.6201 238.39 42.6801L237.21 42.4801L235.9 42.7401L233.34 42.6101L232.68 42.4801C232.55 42.4101 232.48 42.4101 232.35 42.4101C231.82 42.4101 231.36 42.8001 231.23 42.9401C230.9 43.3301 230.84 43.6601 230.84 44.1201L231.17 44.5801L230.71 47.1401L230.97 48.5201L230.84 50.5601L230.64 51.0201L230.84 53.1201L230.77 54.3001C230.97 54.8301 231.16 54.9601 231.3 55.3501C231.63 55.4801 231.96 55.6101 232.42 55.6101L233.27 55.4101L235.44 55.8001L237.08 55.6701C237.67 55.7401 238.2 55.8001 238.59 56.0601C238.85 56.2601 238.98 56.3901 239.25 56.7201C239.32 56.9801 239.58 57.3801 239.58 58.1001L239.78 59.4801L239.45 60.6001L239.58 62.9001C239.38 63.4301 239.32 63.9501 239.05 64.0801L238.06 64.4101C237.6 65.0001 237.67 64.7401 237.27 65.0701H235.17L233 64.8701C232.87 64.8001 232.74 64.8001 232.61 64.8001C232.15 64.8001 231.95 65.1301 231.56 65.3301C231.1 65.4001 230.9 65.9201 230.84 66.5801L230.97 67.7601L230.77 69.6701L231.03 70.7201L230.83 73.0201L230.7 73.5501L230.83 75.0601L230.76 76.9701L230.83 77.6301C231.22 77.8901 231.88 78.2201 232.6 78.2201L234.24 78.0201L234.22 78.0301Z" fill="white"/>
<path d="M268.58 72.91L268.65 73.57L268.45 76.07C268.52 76.33 268.58 76.66 268.58 76.92C268.58 77.18 268.51 77.45 268.38 77.64C268.38 77.77 268.25 78.23 268.25 78.63L267.92 79.09C267.79 79.62 267.72 80.93 267.33 81.32L266.94 81.71C266.94 82.43 266.41 82.7 266.15 83.16C266.02 83.29 265.95 83.49 265.89 84.01C265.23 84.34 264.84 84.6 263.85 85.39L263.32 85.92C262.6 86.45 262.01 86.18 261.41 86.77C260.62 87.16 260.16 87.36 259.31 87.43H258.98C258.45 87.43 258.26 87.63 257.14 87.69L256.61 87.95C256.28 87.88 256.02 87.82 255.76 87.82C255.43 87.82 255.1 87.89 254.71 87.89C254.51 87.89 254.25 87.82 254.05 87.82H253.66C252.35 87.56 251.23 87.16 250.64 86.9C250.44 86.9 250.25 86.77 249.98 86.77C249.59 86.51 249.39 86.31 249.06 85.85C248.73 85.78 248.01 85.46 247.42 84.8C246.7 84.6 246.37 84.14 246.11 83.75L245.72 83.62C245.33 83.09 244.87 82.31 244.67 81.58C244.54 81.45 244.28 80.73 244.28 80.13C244.08 80.06 243.95 80 243.89 79.47C243.89 79.08 243.56 78.48 243.23 77.37V76.84C243.23 76.58 243.23 76.31 243.36 76.05V75.52C243.36 75.32 243.36 75.19 243.29 74.99L243.49 73.87L243.16 72.03C243.16 71.44 243.23 70.85 243.36 70.45C243.95 70.25 244.02 69.92 244.61 69.46C245.07 69.26 245.33 69.07 245.86 69.07H247.9L248.82 69.2L250.13 69.07C250.52 69.14 250.85 69.2 251.12 69.33C251.58 69.4 252.63 69.92 252.7 70.97C252.7 71.17 252.77 71.36 252.9 71.76L252.97 73.27L252.77 74.72C252.84 75.05 252.84 75.38 252.84 75.57V76.1C252.84 76.3 252.84 76.43 252.97 76.56C252.97 77.28 253.36 77.87 253.76 78.07L254.55 78.2C254.81 78.53 255.14 78.86 255.8 78.86C256 78.86 256.19 78.86 256.46 78.79L256.79 78.59C257.64 78.33 258.04 78.33 258.63 77.47L258.96 76.62C259.03 76.29 259.16 75.96 259.16 75.63C259.16 75.5 259.16 75.37 259.09 75.24L258.96 73.6L259.03 71.63C259.03 71.3 259.1 70.97 259.1 70.84C258.77 70.12 258.9 69.33 258.84 69.13C258.77 68.6 258.58 68.41 258.12 67.82C258.19 67.62 258.25 67.43 258.25 67.29C258.25 66.96 258.12 66.76 257.79 66.63L257.2 66.5C256.02 65.97 255.89 65.19 255.1 64.99L254.51 64.53L252.54 63.35L251.82 62.82C251.49 62.36 251.43 62.36 251.43 62.36C250.9 62.36 250.12 61.64 249.66 61.64C248.87 60.92 248.28 60.59 247.95 60.26C247.75 60 247.56 59.93 247.29 59.93C246.63 59.47 246.17 58.75 245.84 58.09C245.71 57.89 245.45 57.76 245.18 57.37C244.98 57.04 244.98 56.84 244.92 56.58C244.72 56.38 244.26 55.73 244.2 55C244.13 54.74 244.13 54.54 244 54.21L243.74 53.95L243.54 52.57C243.54 52.31 243.61 52.11 243.61 51.91C243.61 51.65 243.54 51.38 243.48 51.06V50.53C243.48 49.81 243.41 49.15 243.35 48.89V46.66L243.22 45.61V45.22C243.22 44.43 243.48 43.91 243.48 43.31C243.55 42.92 243.68 42.52 243.68 42.39C243.81 42 243.75 41.86 243.88 41.47C243.95 41.14 244.47 40.22 244.6 39.7C244.67 39.37 244.6 39.11 244.8 38.65C244.87 38.52 245.06 38.19 245.13 38.19C245.46 37.53 245.79 37.4 246.25 37.01C246.38 36.75 246.64 36.35 247.04 36.35C247.57 35.82 248.09 35.3 248.68 34.9C248.88 34.83 249.07 34.7 249.67 34.57C249.87 34.11 251.05 33.39 252.17 33.32C252.3 33.25 252.83 32.99 253.29 32.99C253.42 32.99 253.49 32.99 253.62 33.06C253.88 32.86 254.15 32.93 254.61 32.73C255 32.73 255.4 32.8 255.66 32.8H256.05C256.31 32.8 256.58 32.73 256.77 32.73C256.84 32.73 256.97 32.73 257.03 32.8C257.82 32.87 258.02 33.19 258.74 33.39C259 33.46 259.27 33.46 259.46 33.46C259.92 33.46 260.31 33.46 260.77 33.79C261.23 33.99 261.62 34.18 262.02 34.25C262.35 34.58 262.74 34.58 263.27 34.78C263.93 35.17 264.26 35.44 264.85 36.09L265.18 36.62C265.57 36.75 265.77 37.08 266.03 37.21C266.16 37.47 266.56 37.8 266.88 38.39C267.01 38.78 267.54 39.44 267.6 39.84C267.73 40.1 268.06 40.5 268.13 40.96C268.13 41.29 268.2 41.55 268.2 41.81C268.2 41.94 268.2 42.14 268.07 42.34C268.14 42.87 268.66 43.72 268.66 44.51C268.66 44.84 268.53 45.23 268.4 45.76L268.66 47.4L268.59 48.78C268.46 49.31 268.26 49.57 268.06 49.9L267.93 50.29C267.34 50.95 266.42 51.14 265.7 51.14L264.19 50.94L263.27 50.74C261.76 50.87 261.69 50.87 261.63 50.87C261.24 50.87 260.45 50.61 260.12 50.41L259.59 49.82C259.33 49.75 259.2 48.9 259.13 48.44L258.87 47.72L259.2 45.09C259.2 44.83 258.94 44.5 258.94 44.24C258.61 43.58 258.48 43.12 258.22 42.93C257.89 42.6 257.63 42.4 257.17 42.08C256.78 42.01 256.45 41.95 256.18 41.82C255.39 41.89 254.8 42.08 254.54 42.35C254.21 42.55 253.95 42.61 253.88 42.74C253.49 43.33 253.09 43.33 252.89 44.51C252.89 44.71 252.76 44.97 252.76 45.23C252.76 45.3 252.76 45.43 252.83 45.49L252.7 47.53L252.96 48.58C252.96 48.84 252.89 49.04 252.89 49.37C252.89 49.57 252.96 49.83 253.02 50.03C253.02 50.23 253.02 50.42 253.15 50.69V51.35C253.54 51.74 253.74 52.27 254 52.86C254.39 52.86 254.59 53.32 255.25 53.58C255.71 54.24 256.1 54.43 256.76 54.89L257.94 55.55L259.06 56.54L259.85 56.87L260.97 57.72C261.63 58.31 262.48 58.57 262.61 58.77L264.06 59.49C264.32 60.02 264.59 60.08 264.91 60.41C265.24 60.94 265.3 60.8 265.57 61.26C265.77 61.52 266.36 61.98 266.69 62.18C266.62 62.31 267.08 62.84 267.28 63.23L267.41 63.82C267.74 64.28 268.2 64.54 268.2 65.07L268.4 65.73C268.33 65.86 268.33 66.06 268.33 66.19C268.33 66.58 268.46 66.91 268.46 67.5V69.14C268.66 69.53 268.92 70.26 268.92 71.05L268.66 72.89L268.58 72.91Z" fill="white"/>
<path d="M297.89 47.68L297.82 48.6L297.95 49.65L297.75 51.95L297.82 53.59L297.95 54.12V57.6L297.69 58.65L297.82 60.16L297.69 61.87L297.82 63.64V64.43L297.69 65.68L298.02 67.13L297.82 69.3L298.08 70.48L297.82 72.45L297.95 73.7L297.82 76.46L298.02 77.31L297.82 79.74V80.99L297.95 81.25L297.82 83.35L298.02 84.07C297.82 85.25 297.49 85.91 297.17 86.5C296.71 87.22 296.05 87.42 295.26 87.55L294.73 87.35H291.05C290.85 87.35 290.66 87.42 290.52 87.42C290.26 87.42 290.06 87.35 289.67 87.16C289.14 86.77 288.95 86.5 288.55 85.98C288.48 85.78 288.35 85.45 288.35 85.26C288.35 85.13 288.35 85.06 288.55 83.35L288.35 82.5L288.55 80.13L288.35 78.82L288.48 78.29L288.28 76.52L288.41 75.67V73.83L288.28 72.12L288.41 71L288.28 69.88V67.58C288.21 67.38 288.02 67.25 287.62 66.92C287.49 66.79 287.42 66.72 287.29 66.72C287.16 66.72 287.03 66.79 286.9 66.92L284.47 66.66L283.81 66.73C283.68 66.73 283.55 66.66 283.42 66.66C282.83 66.66 281.97 67.19 281.97 67.91C281.97 67.98 282.04 68.04 282.04 68.11L281.91 69.1L282.17 71.33L282.04 72.84L282.11 73.43V75.8L281.85 76.85L282.05 78.03V80.86L281.85 82.11L282.11 83.69L282.04 85.53C281.84 86.06 281.45 86.65 280.99 87.11C280.6 87.44 280.2 87.57 279.81 87.57L279.48 87.5L278.36 87.63H276.13C274.49 87.3 274.03 87.37 273.7 87.3C272.65 86.05 272.58 85.39 272.58 84.93V81.32L272.45 79.15L272.32 78.23L272.58 75.8L272.25 75.01L272.58 72.58V71.33L272.45 71.13L272.58 68.76V66.46L272.38 64.82L272.77 63.51V61.41L272.51 61.08L272.64 58.12L272.51 57.27L272.58 55.56L272.38 55.1L272.45 53.13L272.32 52.47L272.52 49.84L272.78 49.12L272.58 46.82V45.9C272.58 45.44 272.58 45.18 272.45 44.59C272.58 44.26 272.65 43.74 272.91 42.75C272.91 42.29 273.17 41.7 273.17 41.04L273.43 39.92C273.69 39.66 273.82 39.33 274.22 38.67C274.35 38.41 274.48 38.28 274.75 38.01C275.28 37.75 275.6 36.96 275.8 36.37C276.33 36.37 276.46 35.58 276.79 35.58C277.25 35.38 277.58 35.32 278.04 34.92C278.57 34.79 278.7 34.33 279.29 34.07C279.88 33.74 280.54 33.68 281 33.48C281.2 33.48 281.33 33.41 281.53 33.41C281.73 33.41 281.86 33.48 282.12 33.54C282.65 33.21 283.7 33.01 284.68 32.75H285.27C285.6 32.75 285.93 32.75 286.45 33.01C286.65 32.81 287.11 32.94 287.63 32.75C288.62 33.54 289.4 33.34 290.13 33.8L291.38 34.33C292.04 34.86 293.15 35.12 293.68 35.91C295.32 37.42 295.52 37.75 295.78 38.08L296.11 38.34C296.44 38.87 296.57 39.65 296.83 39.79C297.03 40.58 297.09 41.17 297.22 41.5C297.35 41.89 297.55 42.16 297.55 42.68C297.55 43.01 297.94 43.86 297.94 44.06C297.94 44.45 297.61 44.91 297.61 45.64L297.87 47.68H297.89ZM282.05 56.81L282.44 57.2C282.51 57.66 282.97 58.12 283.56 58.12L285.27 57.99H287.11C287.77 57.79 288.29 57.2 288.29 56.68L288.55 56.15L288.35 53.46L288.55 52.21L288.22 49.84L288.15 48L288.28 46.42L288.15 45.5C288.28 45.37 288.28 45.11 288.28 44.91C288.28 44.58 288.21 44.25 288.08 43.92C287.95 43.59 287.88 43.46 287.88 43.2C287.55 43.13 286.96 42.41 286.57 42.21C286.24 42.14 285.91 41.95 285.65 41.95C285.58 41.95 285.45 41.95 285.39 42.02C284.8 42.02 284.54 42.09 284.27 42.09C283.55 42.16 283.35 42.68 283.22 42.88C282.69 43.21 282.43 43.73 282.04 44.52C282.04 44.98 282.11 45.18 282.11 45.57L282.31 46.16L281.92 48.85L282.12 53.91L281.92 54.9L282.12 56.35L282.05 56.81Z" fill="white"/>
<path d="M308.71 52.16V44.32C308.71 40.89 310.51 39.12 313.37 39.12C316.23 39.12 318.03 40.89 318.03 44.32V52.16C318.03 55.59 316.23 57.36 313.37 57.36C310.51 57.36 308.71 55.59 308.71 52.16ZM316.16 52.05V44.44C316.16 42.11 315.06 40.93 313.38 40.93C311.7 40.93 310.6 42.11 310.6 44.44V52.05C310.6 54.38 311.69 55.56 313.38 55.56C315.07 55.56 316.16 54.38 316.16 52.05ZM312.56 37.75C312.31 37.97 312.11 38 311.97 38C311.63 38 311.38 37.69 311.38 37.38C311.38 37.16 311.46 37.01 311.75 36.68L313.41 34.6C313.8 34.12 314.14 33.98 314.7 33.98H315.35C315.72 33.98 315.97 34.29 315.97 34.57C315.97 34.74 315.91 34.94 315.75 35.08L312.58 37.75H312.56Z" fill="white"/>
<path d="M330.9 44.2399V52.0799C330.9 53.7899 330.48 55.0299 329.75 55.8999C328.99 56.8299 327.81 57.3299 326.58 57.3299C325.46 57.3299 324.84 56.9399 324.36 56.7999C324.28 56.7699 324.16 56.7399 323.99 56.7399C323.79 56.7399 323.65 56.8199 323.57 56.9399C323.49 57.0499 323.43 57.1899 323.43 57.4699C323.43 57.5799 323.46 57.9999 323.46 58.2599V61.2099C323.46 61.5499 323.21 61.7999 322.84 61.7999H322.19C321.85 61.7999 321.57 61.5499 321.57 61.2099V40.1099C321.57 39.6899 321.88 39.3199 322.41 39.3199C322.69 39.3199 322.92 39.4299 323.14 39.6299L323.2 39.6899C323.37 39.8599 323.48 39.9099 323.68 39.9099C323.9 39.9099 324.33 39.6599 324.66 39.5399C325.17 39.3399 325.87 39.1199 326.51 39.1199C329.32 39.1199 330.89 41.2299 330.89 44.2299L330.9 44.2399ZM323.46 52.1299C323.46 54.3499 324.36 55.5299 326.38 55.5299C327.14 55.5299 327.9 55.1899 328.35 54.5699C328.77 53.9799 329.02 53.1399 329.02 51.8699V44.4299C329.02 42.0099 327.9 40.9199 326.27 40.9199C325.29 40.9199 324.56 41.2299 324.08 41.8799C323.69 42.4099 323.46 43.1199 323.46 44.2999V52.1399V52.1299Z" fill="white"/>
<path d="M335.18 41.66C335.18 41.29 334.93 41.1 334.59 41.1H333.49C333.15 41.1 332.9 40.85 332.9 40.51V39.92C332.9 39.58 333.15 39.33 333.49 39.33H334.59C334.93 39.33 335.18 39.13 335.18 38.77V36.58C335.18 36.24 335.43 35.99 335.8 35.99H336.47C336.81 35.99 337.09 36.24 337.09 36.58V38.77C337.09 39.11 337.31 39.33 337.65 39.33H340.12C340.46 39.33 340.71 39.58 340.71 39.92V40.51C340.71 40.85 340.46 41.1 340.12 41.1H337.65C337.31 41.1 337.09 41.32 337.09 41.66V53.35C337.09 53.88 337.2 54.47 337.46 54.81C337.72 55.15 338.19 55.37 338.87 55.37H340.11C340.42 55.37 340.67 55.62 340.67 55.93V56.58C340.67 56.89 340.42 57.17 340.11 57.17H339.24C337.81 57.17 336.82 56.83 336.18 56.19C335.51 55.54 335.2 54.59 335.2 53.1V41.67L335.18 41.66Z" fill="white"/>
<path d="M343.6 34.58C343.6 34.24 343.88 33.99 344.22 33.99H345.09C345.46 33.99 345.71 34.24 345.71 34.58V35.51C345.71 35.85 345.46 36.1 345.09 36.1H344.22C343.88 36.1 343.6 35.85 343.6 35.51V34.58ZM343.72 39.91C343.72 39.57 344 39.32 344.34 39.32H344.99C345.36 39.32 345.61 39.57 345.61 39.91V56.57C345.61 56.91 345.36 57.16 344.99 57.16H344.34C344 57.16 343.72 56.91 343.72 56.57V39.91Z" fill="white"/>
<path d="M351.44 44.6599V51.8199C351.44 54.5699 352.53 55.5599 354.25 55.5599C356.27 55.5599 357 53.9899 357 52.2699V52.1899C357 51.8499 357.28 51.5999 357.59 51.5999H358.29C358.63 51.5999 358.88 51.8499 358.88 52.1899V52.4199C358.88 54.7799 357.73 57.3599 354.25 57.3599C351.47 57.3599 349.56 55.7899 349.56 52.1599V44.3199C349.56 40.8099 351.53 39.1199 354.25 39.1199C357.68 39.1199 358.88 41.6999 358.88 44.0599V44.2799C358.88 44.6199 358.63 44.8699 358.29 44.8699H357.56C357.25 44.8699 357 44.6199 357 44.2799V44.1999C357 42.2099 356.04 40.9099 354.25 40.9099C352.46 40.9099 351.44 42.0899 351.44 44.6499V44.6599Z" fill="white"/>
<path d="M362.14 52.1599V44.3199C362.14 40.8899 363.94 39.1199 366.8 39.1199C369.66 39.1199 371.46 40.8899 371.46 44.3199V52.1599C371.46 55.5899 369.66 57.3599 366.8 57.3599C363.94 57.3599 362.14 55.5899 362.14 52.1599ZM369.59 52.0499V44.4399C369.59 42.1099 368.49 40.9299 366.81 40.9299C365.13 40.9299 364.03 42.1099 364.03 44.4399V52.0499C364.03 54.3799 365.12 55.5599 366.81 55.5599C368.5 55.5599 369.59 54.3799 369.59 52.0499Z" fill="white"/>
<path d="M380.88 48.0599C383.13 49.1799 384.14 50.2799 384.14 52.5499V52.6899C384.14 54.9899 382.65 57.3499 379.59 57.3499C376.81 57.3499 375.01 55.4399 375.01 52.5699V52.1799C375.01 51.8399 375.29 51.5899 375.63 51.5899H376.33C376.64 51.5899 376.92 51.8399 376.92 52.1799V52.5699C376.92 53.8599 377.51 55.5499 379.59 55.5499C381.67 55.5499 382.26 53.6999 382.26 52.7099V52.6299C382.26 51.0899 381.42 50.4399 380.07 49.7599L378.16 48.7999C375.91 47.6799 375.01 46.6399 375.01 44.3599V43.7699C375.01 40.8999 376.98 39.1099 379.59 39.1099C382.57 39.1099 384.14 41.1599 384.14 43.8899V44.2799C384.14 44.6199 383.89 44.8699 383.52 44.8699H382.82C382.51 44.8699 382.23 44.6199 382.23 44.2799V43.8899C382.23 42.3199 381.42 40.9099 379.59 40.9099C377.96 40.9099 376.89 42.0899 376.89 43.7799V44.2299C376.89 45.7699 377.73 46.5299 379.08 47.1799L380.88 48.0499V48.0599Z" fill="white"/>
<path d="M401.3 56.5701C401.3 56.3201 401.33 55.9001 401.33 55.7801C401.33 55.5001 401.27 55.3601 401.19 55.2501C401.11 55.1401 400.97 55.0501 400.77 55.0501C400.6 55.0501 400.49 55.0801 400.4 55.1101C399.92 55.2501 399.3 55.6401 398.18 55.6401C396.97 55.6401 395.79 55.1301 395.01 54.2101C394.31 53.3401 393.86 52.1001 393.86 50.3901V39.8801C393.86 39.5701 394.14 39.3201 394.45 39.3201H395.15C395.49 39.3201 395.74 39.5701 395.74 39.8801V50.1901C395.74 51.4501 396.02 52.3201 396.44 52.9101C396.92 53.5301 397.62 53.8401 398.38 53.8401C400.4 53.8401 401.3 52.6601 401.3 50.4401V39.8801C401.3 39.5701 401.55 39.3201 401.89 39.3201H402.62C402.93 39.3201 403.18 39.5701 403.18 39.8801V55.9801C403.18 58.0901 402.96 58.9601 402.53 59.7401C401.77 61.2001 400.34 61.9601 398.49 61.9601C396.05 61.9601 394.3 60.5301 393.94 57.9401V57.6901C393.94 57.3501 394.19 57.1001 394.5 57.1001H395.15C395.52 57.1001 395.77 57.3301 395.82 57.6901L395.85 57.9101C396.13 59.3701 397.31 60.1601 398.55 60.1601C400.09 60.1601 401.3 59.1501 401.3 56.7901V56.5701Z" fill="white"/>
<path d="M308.54 81.9001V81.5901C308.54 80.4701 308.82 79.2601 309.47 78.3901C310.2 77.4301 311.27 76.7601 313.07 76.7601H315.4C315.74 76.7601 315.99 76.5401 315.99 76.1701V74.1501C315.99 71.7601 314.87 70.6401 313.24 70.6401C311.61 70.6401 310.49 71.7601 310.49 73.8101V74.0101C310.49 74.3501 310.21 74.6001 309.87 74.6001H309.17C308.83 74.6001 308.58 74.3501 308.58 74.0101V73.8101C308.58 70.7801 310.46 68.8401 313.24 68.8401C316.02 68.8401 317.9 70.6401 317.9 74.0401V86.0601C317.9 86.4801 317.62 86.8501 317.06 86.8501C316.78 86.8501 316.55 86.7401 316.36 86.5401L316.3 86.4801C316.13 86.3101 315.99 86.2601 315.79 86.2601C315.57 86.2601 315.14 86.5101 314.83 86.6301C314.3 86.8301 313.62 87.0201 312.92 87.0201C310.14 87.0201 308.54 84.8301 308.54 81.9101V81.9001ZM310.48 81.7601C310.48 84.1801 311.58 85.2701 313.23 85.2701C314.19 85.2701 314.94 84.9601 315.39 84.3101C315.78 83.7801 315.98 83.0201 315.98 81.8401V79.0901C315.98 78.7801 315.81 78.5601 315.39 78.5601H313.31C312.35 78.5601 311.71 78.8101 311.29 79.2301C310.73 79.7601 310.47 80.6101 310.47 81.6501V81.7601H310.48Z" fill="white"/>
<path d="M321.44 81.87V69.59C321.44 69.28 321.69 69.03 322 69.03H322.76C323.07 69.03 323.32 69.28 323.32 69.59V81.5C323.32 82.85 323.54 83.83 324.13 84.48C324.64 85.01 325.37 85.27 326.1 85.27C326.83 85.27 327.56 85.05 328.12 84.51C328.71 83.86 328.88 82.85 328.88 81.5V69.59C328.88 69.28 329.13 69.03 329.5 69.03H330.17C330.48 69.03 330.76 69.28 330.76 69.59V86.08C330.76 86.5 330.45 86.87 329.92 86.87C329.64 86.87 329.42 86.76 329.19 86.56L329.13 86.5C328.96 86.33 328.85 86.28 328.65 86.28C328.43 86.28 328 86.53 327.67 86.65C327.16 86.85 326.49 87.07 325.79 87.07C324.61 87.07 323.54 86.68 322.67 85.75C321.94 84.96 321.43 83.81 321.43 81.87H321.44Z" fill="white"/>
<path d="M334.22 81.93V74.0899C334.22 72.3799 334.64 71.1399 335.37 70.2699C336.13 69.3399 337.34 68.8399 338.57 68.8399C339.69 68.8399 340.28 69.23 340.76 69.37C340.84 69.4 340.96 69.43 341.13 69.43C341.33 69.43 341.47 69.35 341.55 69.23C341.63 69.12 341.69 68.9799 341.69 68.6999C341.69 68.5899 341.66 68.17 341.66 67.91V64.29C341.66 63.95 341.91 63.7 342.28 63.7H342.93C343.27 63.7 343.55 63.95 343.55 64.29V86.0599C343.55 86.4799 343.21 86.8499 342.68 86.8499C342.4 86.8499 342.18 86.74 341.95 86.54L341.89 86.48C341.72 86.31 341.61 86.26 341.41 86.26C341.19 86.26 340.76 86.5099 340.43 86.6299C339.92 86.8299 339.25 87.05 338.6 87.05C335.79 87.05 334.22 84.94 334.22 81.94V81.93ZM341.66 74.04C341.66 71.82 340.79 70.6399 338.77 70.6399C338.01 70.6399 337.23 70.9799 336.78 71.5999C336.36 72.1899 336.11 73.03 336.11 74.3V81.7699C336.11 84.1899 337.26 85.2799 338.89 85.2799C339.87 85.2799 340.58 84.97 341.05 84.32C341.44 83.79 341.67 83.0599 341.67 81.8799V74.04H341.66Z" fill="white"/>
<path d="M347.39 64.29C347.39 63.95 347.67 63.7 348.01 63.7H348.88C349.25 63.7 349.5 63.95 349.5 64.29V65.22C349.5 65.56 349.25 65.8099 348.88 65.8099H348.01C347.67 65.8099 347.39 65.56 347.39 65.22V64.29ZM347.51 69.6299C347.51 69.2899 347.79 69.04 348.13 69.04H348.78C349.15 69.04 349.4 69.2899 349.4 69.6299V86.29C349.4 86.63 349.15 86.8799 348.78 86.8799H348.13C347.79 86.8799 347.51 86.63 347.51 86.29V69.6299Z" fill="white"/>
<path d="M353.35 81.8699V74.0299C353.35 70.5999 355.15 68.8299 358.01 68.8299C360.87 68.8299 362.67 70.5999 362.67 74.0299V81.8699C362.67 85.2999 360.87 87.0699 358.01 87.0699C355.15 87.0699 353.35 85.2999 353.35 81.8699ZM360.79 81.7599V74.1499C360.79 71.8199 359.69 70.6399 358.01 70.6399C356.33 70.6399 355.23 71.8199 355.23 74.1499V81.7599C355.23 84.0899 356.32 85.2699 358.01 85.2699C359.7 85.2699 360.79 84.0899 360.79 81.7599ZM357.2 67.4599C356.95 67.6799 356.75 67.7099 356.61 67.7099C356.27 67.7099 356.02 67.3999 356.02 67.0899C356.02 66.8699 356.1 66.7199 356.39 66.3899L358.05 64.3099C358.44 63.8299 358.78 63.6899 359.34 63.6899H359.99C360.36 63.6899 360.61 63.9999 360.61 64.2799C360.61 64.4499 360.55 64.6499 360.39 64.7899L357.22 67.4599H357.2Z" fill="white"/>
<path d="M366.64 64.29C366.64 63.95 366.92 63.7 367.26 63.7H367.91C368.28 63.7 368.53 63.95 368.53 64.29V86.29C368.53 86.63 368.28 86.8799 367.91 86.8799H367.26C366.92 86.8799 366.64 86.63 366.64 86.29V64.29Z" fill="white"/>
<path d="M372.48 81.8701V74.0301C372.48 70.6001 374.28 68.8301 377.14 68.8301C380 68.8301 381.8 70.6001 381.8 74.0301V81.8701C381.8 85.3001 380 87.0701 377.14 87.0701C374.28 87.0701 372.48 85.3001 372.48 81.8701ZM379.92 81.7601V74.1501C379.92 71.8201 378.82 70.6401 377.14 70.6401C375.46 70.6401 374.36 71.8201 374.36 74.1501V81.7601C374.36 84.0901 375.45 85.2701 377.14 85.2701C378.83 85.2701 379.92 84.0901 379.92 81.7601Z" fill="white"/>
<path d="M394.67 85.6901C394.67 87.8001 394.45 88.6701 394.02 89.4501C393.26 90.9101 391.83 91.6701 389.98 91.6701C387.54 91.6701 385.79 90.2401 385.43 87.6501V87.4001C385.43 87.0601 385.68 86.8101 385.99 86.8101H386.64C387.01 86.8101 387.26 87.0401 387.31 87.4001L387.34 87.6201C387.62 89.0801 388.8 89.8701 390.04 89.8701C391.58 89.8701 392.79 88.8601 392.79 86.5001V86.2801C392.79 86.0301 392.82 85.6101 392.82 85.4901C392.82 85.2101 392.76 85.0701 392.68 84.9601C392.6 84.8501 392.46 84.7601 392.26 84.7601C392.09 84.7601 391.98 84.7901 391.89 84.8201C391.41 84.9601 390.79 85.3501 389.67 85.3501C388.46 85.3501 387.28 84.8401 386.5 83.9201C385.8 83.0501 385.35 81.8101 385.35 80.1001V73.9501C385.35 70.9401 386.95 68.8401 389.76 68.8401C390.38 68.8401 391.05 69.0701 391.59 69.2601C391.9 69.3701 392.32 69.6301 392.55 69.6301C392.78 69.6301 392.92 69.5701 393.14 69.3501C393.34 69.1501 393.56 69.0401 393.84 69.0401C394.4 69.0401 394.68 69.4101 394.68 69.8301V85.7001L394.67 85.6901ZM392.79 74.0101C392.79 72.8301 392.57 72.1001 392.17 71.5701C391.72 70.9201 390.96 70.6101 390.01 70.6101C388.38 70.6101 387.23 71.7101 387.23 74.1201V79.9101C387.23 81.1701 387.51 82.0401 387.93 82.6301C388.41 83.2501 389.11 83.5601 389.87 83.5601C391.89 83.5601 392.79 82.3801 392.79 80.1601V74.0101Z" fill="white"/>
<path d="M398.16 81.8701V74.0301C398.16 70.6001 399.96 68.8301 402.82 68.8301C405.68 68.8301 407.48 70.6001 407.48 74.0301V81.8701C407.48 85.3001 405.68 87.0701 402.82 87.0701C399.96 87.0701 398.16 85.3001 398.16 81.8701ZM405.6 81.7601V74.1501C405.6 71.8201 404.5 70.6401 402.82 70.6401C401.14 70.6401 400.04 71.8201 400.04 74.1501V81.7601C400.04 84.0901 401.13 85.2701 402.82 85.2701C404.51 85.2701 405.6 84.0901 405.6 81.7601Z" fill="white"/>
<path d="M416.89 77.7701C419.14 78.8901 420.15 79.9901 420.15 82.2601V82.4001C420.15 84.7001 418.66 87.0601 415.6 87.0601C412.82 87.0601 411.02 85.1501 411.02 82.2801V81.8901C411.02 81.5501 411.3 81.3001 411.64 81.3001H412.34C412.65 81.3001 412.93 81.5501 412.93 81.8901V82.2801C412.93 83.5701 413.52 85.2601 415.6 85.2601C417.68 85.2601 418.27 83.4101 418.27 82.4201V82.3401C418.27 80.8001 417.43 80.1501 416.08 79.4701L414.17 78.5101C411.92 77.3901 411.02 76.3501 411.02 74.0701V73.4801C411.02 70.6101 412.99 68.8201 415.6 68.8201C418.58 68.8201 420.15 70.8701 420.15 73.6001V73.9901C420.15 74.3301 419.9 74.5801 419.53 74.5801H418.83C418.52 74.5801 418.24 74.3301 418.24 73.9901V73.6001C418.24 72.0301 417.43 70.6201 415.6 70.6201C413.97 70.6201 412.9 71.8001 412.9 73.4901V73.9401C412.9 75.4801 413.74 76.2401 415.09 76.8901L416.89 77.7601V77.7701Z" fill="white"/>
<path d="M424.03 90.4699C423.86 90.5799 423.69 90.6399 423.58 90.6399C423.44 90.6399 423.3 90.5599 423.16 90.3599L423.08 90.2499C422.97 90.1099 422.91 89.9699 422.91 89.8599C422.91 89.6899 423.02 89.5199 423.19 89.3799L423.64 89.0399C424.46 88.4499 424.54 87.8299 424.54 87.2699C424.54 86.9299 424.37 86.8799 424.2 86.8199L424.06 86.7599C423.89 86.6999 423.72 86.6199 423.72 86.2499V85.2399C423.72 85.0099 423.94 84.6799 424.28 84.6799H425.35C425.74 84.6799 426 84.9299 426 85.2999V86.8699C426 88.3899 425.38 89.4799 424.34 90.2399L424.03 90.4599V90.4699Z" fill="white"/>
<path d="M437.91 70.61C437.91 72.35 438.28 73.17 440.07 74.07L442.2 75.11C444.42 76.21 445.46 77.41 445.46 80V81.97C445.46 85.28 443.66 87.08 440.74 87.08C437.82 87.08 435.99 85.31 435.99 81.97V80.34C435.99 80 436.3 79.75 436.61 79.75H437.31C437.65 79.75 437.93 80 437.93 80.34V81.52C437.93 84.1 438.91 85.28 440.74 85.28C442.57 85.28 443.55 84.04 443.55 81.52V80.34C443.55 78.37 442.74 77.53 441.36 76.86L439.14 75.76C436.81 74.61 435.99 73.29 435.99 70.96V68.66C435.99 65.23 437.84 63.52 440.71 63.52C443.8 63.52 445.46 65.57 445.46 68.66V70.35C445.46 70.66 445.18 70.94 444.87 70.94H444.11C443.8 70.94 443.52 70.66 443.52 70.35V69.09C443.52 66.51 442.51 65.33 440.71 65.33C438.91 65.33 437.9 66.57 437.9 69.09V70.63L437.91 70.61Z" fill="white"/>
<path d="M451 84.43C451 84.8 451.25 85.08 451.59 85.08H455.75C456.06 85.08 456.34 85.3299 456.34 85.6399V86.3099C456.34 86.6199 456.06 86.87 455.75 86.87H449.71C449.4 86.87 449.06 86.6199 449.06 86.3099V64.26C449.06 63.95 449.4 63.7 449.71 63.7H450.41C450.75 63.7 451 63.95 451 64.26V84.43Z" fill="white"/>
<path d="M461.5 77.18C461.13 77.18 460.91 77.46 460.91 77.83V86.3099C460.91 86.6199 460.66 86.87 460.29 86.87H459.59C459.28 86.87 458.97 86.6199 458.97 86.3099V64.29C458.97 63.98 459.28 63.7 459.59 63.7H463.75C466.67 63.7 468.47 65.4999 468.47 68.8399V72.07C468.47 75.41 466.62 77.18 463.72 77.18H461.5ZM461.62 65.5C461.11 65.5 460.92 65.67 460.92 66.12V74.7699C460.92 75.2199 461.06 75.3899 461.51 75.3899H463.81C465.61 75.3899 466.54 74.24 466.54 71.65V69.2099C466.54 66.6499 465.67 65.5 463.84 65.5H461.62Z" fill="white"/>
</svg>
