<?xml version="1.0" encoding="UTF-8"?>
<svg id="Layer_1" data-name="Layer 1" xmlns="http://www.w3.org/2000/svg" viewBox="0 0 492.94 121.99">
  <defs>
    <style>
      .cls-1 {
        fill: #fff;
      }
    </style>
  </defs>
  <g>
    <path class="cls-1" d="M17.01,17.01v87.97h116.35V17.01H17.01ZM120.6,75.86c-.03.38-.19.74-.25,1.12-.05.38,0,.77-.07,1.14-.08.37-.13.75-.24,1.12-.1.37-.17.75-.3,1.11-.13.36-.48.63-.63.97-.15.35-.27.7-.45,1.04-.18.34-.22.75-.41,1.07-.2.32-.42.64-.63.95-.22.31-.59.51-.83.8-.24.3-.56.51-.82.79-.26.28-.41.65-.69.91-.27.26-.43.66-.72.9-.29.25-.8.21-1.1.44-.3.23-.6.45-.92.66-.32.21-.63.4-.96.59-.33.19-.62.43-.96.6-.34.17-.6.5-.95.65-.35.15-.7.3-1.06.43-.36.13-.76.12-1.12.23-.36.11-.68.41-1.05.5-.37.09-.75.14-1.13.21-.37.06-.78-.13-1.16-.08-.37.04-.75.04-1.13.06-.38.02-.75-.03-1.13-.03s-.78.17-1.16.15c-.39-.02-.78-.01-1.16-.06-.39-.05-.76-.18-1.14-.24-.38-.07-.73-.28-1.1-.37-.38-.09-.82.06-1.19-.06-.37-.11-.76-.19-1.12-.32-.36-.13-.61-.55-.97-.7-.36-.16-.73-.26-1.07-.43-.35-.18-.75-.24-1.08-.44-.33-.2-.61-.49-.93-.71-.32-.22-.64-.44-.94-.67-.31-.24-.6-.48-.9-.74-.29-.26-.52-.57-.79-.84-.27-.27-.62-.6-.88-.89-.26.29-.4.82-.67,1.1-.27.27-.54.57-.83.83-.29.26-.62.48-.93.72-.31.24-.67.41-.99.63-.32.22-.61.5-.95.69-.33.2-.7.36-1.04.54-.34.18-.78.17-1.13.33-.35.15-.71.3-1.07.44-.36.13-.7.33-1.08.44-.37.11-.72.32-1.1.41-.38.09-.76.2-1.14.26-.38.07-.8-.09-1.19-.04-.38.04-.76.17-1.15.19-.38.02-.77,0-1.17,0s-.77-.23-1.15-.25c-.39-.02-.79.16-1.17.11-.39-.05-.78-.06-1.16-.13-.38-.07-.77-.13-1.15-.22-.38-.09-.78-.12-1.15-.23-.37-.11-.69-.39-1.05-.53-.36-.13-.7-.33-1.05-.49-.36-.16-.81-.12-1.15-.29-.35-.18-.59-.55-.92-.75-.33-.2-.63-.44-.95-.66-.32-.22-.71-.33-1.02-.57-.31-.24-.71-.37-1-.63-.29-.26-.35-.76-.63-1.03-.27-.27-.64-.54-.89-.83-.26.29-.51.66-.79.93-.27.27-.7.38-.99.63-.29.26-.47.63-.78.87-.31.24-.57.54-.89.76-.32.22-.77.23-1.1.43-.33.2-.52.66-.86.84-.34.18-.8.12-1.16.28-.35.15-.67.4-1.03.54-.36.13-.68.41-1.05.53-.37.11-.84-.15-1.22-.06-.38.09-.74.19-1.12.26-.38.07-.72.45-1.1.49-.38.04-.79-.07-1.18-.05-.38.02-.83.05-1.22.05-.18-.5.01-.56.01-1.09s.02-.54.02-1.07-.06-.53-.06-1.07.26-.53.26-1.07-.2-.53-.2-1.06.24-.53.24-1.07-.22-.53-.22-1.07-.26-.59-.07-1.1c.39,0,.86.07,1.24.03.39-.04.76-.16,1.14-.24.38-.08.8-.03,1.17-.15.37-.12.72-.31,1.07-.46.36-.16.57-.58.9-.77.34-.19.7-.32,1.01-.54.31-.23.67-.4.95-.66.28-.27.65-.46.9-.75.25-.3.44-.65.65-.98.21-.33.33-.71.49-1.06.16-.35.33-.7.44-1.07.11-.37.07-.77.13-1.15.06-.38.19-.72.19-1.11.5-.18.53,0,1.06,0s.54.14,1.07.14.53-.03,1.07-.03.53,0,1.07,0,.53.04,1.06.04.53-.3,1.07-.3.53-.02,1.07-.02.62-.17,1.12.01c0,.39.15.89.21,1.27.06.38-.15.82-.04,1.19.11.37.21.77.37,1.12.16.35.41.67.62,1,.21.32.57.54.82.84.25.29.42.66.71.92.28.26.64.43.95.66.31.23.58.52.92.71.33.19.64.46,1,.62.35.15.72.31,1.09.43.36.12.77.16,1.15.24.37.08.78.05,1.16.09.38.04.77.16,1.16.16s.79.02,1.17-.02c.39-.04.77-.18,1.15-.25.38-.08.68-.46,1.04-.57.37-.12.75-.17,1.1-.33.36-.16.78-.17,1.11-.36.34-.19.69-.38,1-.61.31-.23.51-.61.78-.87.28-.27.52-.56.76-.86.25-.3.69-.46.89-.78.21-.33.28-.74.44-1.09.16-.35.18-.75.29-1.12.11-.37.18-.73.23-1.12.06-.38.14-.89.14-1.28.5-.18.59.13,1.13.13s.54-.11,1.07-.11.53-.05,1.07-.05.53.11,1.07.11.53,0,1.06,0,.53.21,1.07.21.53-.07,1.06-.07.53-.17,1.03.02c0,.39-.11.7-.05,1.08.06.38.38.72.49,1.08.11.37.31.69.47,1.04.16.35.38.65.58.97.21.32.44.6.68.9.25.29.31.75.6,1.01.28.26.64.43.95.66.31.23.68.34,1.02.54.33.19.68.31,1.04.47.35.15.67.35,1.04.47.36.12.72.22,1.11.3.37.08.75.05,1.14.09.38.04.75.2,1.14.2s.77-.01,1.15-.05c.39-.04.76-.12,1.14-.19.38-.08.81,0,1.17-.11.37-.12.69-.39,1.04-.54.36-.16.67-.37,1.01-.56.34-.19.57-.51.88-.73.31-.23.62-.43.9-.69.28-.27.57-.5.82-.8.25-.3.75-.42.96-.74.21-.33.36-.71.52-1.06.16-.35.04-.81.15-1.18.11-.37.51-.68.57-1.07.06-.38-.21-1-.21-1.39.5-.18.61.36,1.15.36s.54-.02,1.07-.02c.53,0,.53.07,1.07.07.53,0,.53-.3,1.07-.3.53,0,.53.28,1.06.28.53,0,.53.02,1.07.02.53,0,.53-.36,1.07-.35.53,0,.61-.15,1.11.03,0,.38-.02.88-.04,1.26ZM120.73,70.87c-.37.38-.67.08-1.2.08s-.53-.33-1.07-.33-.53-.03-1.07-.03-.53.03-1.06.03c-.39,0-.77,0-1.16-.03-.39-.02-.77-.09-1.15-.13-.39-.05-.82.23-1.2.16-.38-.07-.73-.32-1.11-.41-.38-.09-.7-.36-1.07-.48-.37-.11-.73-.24-1.09-.38-.36-.13-.72-.25-1.08-.41-.36-.16-.85-.01-1.2-.19-.35-.18-.53-.65-.86-.85-.33-.2-.62-.45-.94-.67-.32-.22-.79-.22-1.1-.46-.31-.24-.7-.38-.99-.64-.29-.26-.31-.8-.59-1.07-.27-.27-.67-.31-.92-.6-.26.29-.45.52-.73.8-.27.27-.77.3-1.06.56-.29.26-.31.84-.62,1.08-.31.24-.86.14-1.18.36-.32.22-.48.68-.82.88-.33.2-.68.39-1.02.57-.34.18-.67.41-1.03.57-.35.15-.85-.04-1.22.09-.36.13-.7.33-1.07.44-.37.11-.69.42-1.07.51-.38.09-.81-.08-1.19-.01-.38.07-.73.31-1.12.35-.38.04-.77.03-1.16.06-.38.02-.77.02-1.16.02s-.78.07-1.17.04c-.39-.02-.78-.04-1.17-.08-.39-.05-.73-.39-1.11-.45-.38-.07-.8.05-1.17-.04-.38-.09-.71-.33-1.08-.44-.37-.11-.81-.03-1.17-.16-.36-.13-.73-.27-1.08-.43-.36-.16-.59-.57-.93-.74-.35-.18-.87-.04-1.2-.23-.33-.2-.57-.56-.89-.77-.32-.22-.66-.42-.96-.66-.31-.24-.52-.59-.81-.84-.29-.26-.75-.34-1.02-.61-.27-.27-.43-.8-.68-1.09-.26.29-.5.73-.77,1-.27.27-.46.65-.76.9-.29.26-.72.35-1.03.59-.31.24-.57.54-.89.76-.32.22-.77.22-1.11.42-.33.2-.66.38-1.01.56-.34.18-.68.35-1.03.51-.35.15-.61.55-.98.68-.36.13-.73.29-1.1.4-.37.11-.83-.09-1.2,0-.38.09-.71.36-1.09.43-.38.07-.76.2-1.14.25-.38.04-.78.07-1.16.1-.38.02-.78-.13-1.17-.13s-.77-.06-1.16-.09c-.39-.02-.78.02-1.16-.02-.39-.05-.74-.26-1.12-.33-.38-.07-.77-.06-1.15-.15-.38-.09-.75-.17-1.12-.28-.37-.11-.77-.14-1.13-.27-.36-.13-.74-.25-1.09-.41-.36-.16-.71-.32-1.06-.49-.35-.18-.72-.32-1.05-.51-.33-.2-.49-.67-.81-.88-.32-.22-.7-.35-1-.58-.31-.24-.58-.5-.87-.76-.29-.26-.68-.4-.95-.68-.27-.27-.52-.42-.78-.71-.26.29-.45.49-.72.77-.27.27-.49.62-.79.87-.29.26-.64.46-.95.69-.31.24-.58.54-.9.75-.32.22-.76.26-1.09.46-.33.2-.6.52-.95.7-.34.18-.82.09-1.17.24-.35.16-.72.27-1.08.41-.36.13-.73.23-1.1.34-.37.11-.68.44-1.06.53-.38.09-.8-.05-1.18.02-.38.07-.74.23-1.13.28-.38.04-.78-.09-1.17-.07-.38.02-.88.29-1.27.29-.18-.5-.08-.58-.08-1.11s.31-.54.31-1.07.02-.53.02-1.07-.36-.53-.36-1.07.13-.53.13-1.06.15-.53.15-1.07.05-.53.05-1.07-.18-.53,0-1.03c.39,0,.66-.19,1.04-.23.39-.04.81.16,1.18.08.38-.08.73-.3,1.09-.42.37-.12.7-.34,1.05-.49.36-.16.76-.21,1.09-.4.34-.19.52-.61.83-.83.31-.23.82-.21,1.1-.47.28-.27.61-.52.85-.81.25-.3.46-.65.67-.97.21-.33.36-.7.52-1.05.16-.35.29-.73.4-1.1.11-.37,0-.79.05-1.17.06-.38.15-.84.15-1.23.58-.19.64.17,1.24.17s.61.13,1.21.13.61-.1,1.21-.1.6-.27,1.21-.27.81.63,1.26.23c.4-.35-.1-.59-.1-1.12s.13-.53.13-1.06.07-.53.07-1.06c0-.37-.06-.74-.03-1.11.03-.37.16-.72.22-1.09.05-.37-.1-.77-.03-1.13.08-.36.4-.66.5-1.02.11-.36-.01-.78.12-1.13.13-.35.17-.74.33-1.08.16-.34.48-.6.66-.92.18-.33.37-.64.57-.96.2-.31.41-.62.63-.92.22-.3.48-.57.72-.85.24-.28.61-.44.87-.7.26-.26.55-.48.83-.73.28-.24.53-.5.83-.72.3-.22.45-.64.76-.85.31-.2.58-.49.91-.67.32-.18.66-.37,1-.53.34-.15.79-.05,1.14-.18.35-.13.69-.25,1.05-.36.35-.1.74-.06,1.11-.13.36-.08.69-.3,1.06-.35.37-.05.73-.1,1.11-.13.37-.03.74-.22,1.11-.22s.74.28,1.11.3c.37.03.75-.06,1.12,0,.37.05.7.28,1.06.35.36.08.69.25,1.05.35.36.11.8-.08,1.15.05.35.13.66.37.99.52.34.16.7.27,1.02.44.33.18.59.46.9.66.31.2.66.35.96.57.3.22.58.47.86.71.28.24.68.37.94.63.26.26.3.74.54,1.02.24.28.64.44.86.73.22.3.4.63.61.94.2.31.34.66.52.99.18.32.55.56.7.9.15.34.06.79.19,1.14.13.35.33.67.43,1.03.1.35.3.69.38,1.06.08.36-.11.77-.05,1.14.05.37.24.72.27,1.09.03.37-.04.74-.04,1.12,0,.53-.16.53-.16,1.06s.38.53.38,1.06-.37.55-.3,1.07c.01.07.23-.08.25-.01,0,.4-.07.8-.02,1.19.06.39.2.78.31,1.15.12.38.16.8.33,1.16.17.36.35.74.56,1.07.21.33.77.41,1.02.71.26.3.3.8.6,1.06.29.26.59.55.91.78.32.23.74.31,1.09.51.34.19.63.3,1,.45.2-.52-.09-.53-.09-1.09s.28-.56.28-1.12-.28-.56-.28-1.11.29-.56.29-1.11.02-.55.02-1.11-.26-.56-.26-1.11-.03-.55-.03-1.11.05-.56.05-1.11.25-.55.25-1.11-.21-.55-.21-1.11-.17-.56-.17-1.11.02-.55.02-1.11c0-.38.15-.76.18-1.13.02-.38.27-.73.31-1.11.05-.38.05-.75.11-1.12.07-.37.05-.76.14-1.12.09-.37.05-.78.16-1.13.11-.36.21-.74.34-1.09.13-.35.6-.57.75-.91.16-.34.2-.73.38-1.07.18-.33.19-.77.38-1.09.2-.32.62-.5.83-.81.21-.31.2-.79.43-1.09.23-.3.64-.46.89-.74.25-.28.4-.67.66-.94.27-.27.74-.32,1.02-.57.28-.25.6-.45.89-.68.3-.23.49-.59.8-.81.31-.21.55-.54.87-.74.32-.2.72-.27,1.06-.44.33-.18.64-.42.98-.58.34-.15.81,0,1.16-.14.35-.13.63-.47.99-.58.36-.11.76-.07,1.13-.16.36-.09.69-.35,1.07-.42.37-.07.73-.23,1.11-.27.37-.04.76-.02,1.14-.04.37-.02.76.26,1.14.26s.77-.34,1.14-.32c.38.02.73.33,1.1.38.38.05.79-.17,1.16-.11.37.07.67.49,1.03.58.37.09.75.11,1.1.22.36.11.79.02,1.14.15.35.13.73.24,1.07.4.34.16.51.66.85.84.33.18.65.35.98.55.32.2.81.13,1.12.35.31.21.65.41.94.64.3.23.53.55.81.8.28.25.41.66.68.93.27.27.58.48.83.77.25.28.5.56.74.85.23.3.61.49.82.8.21.31.49.59.69.91.2.32.16.78.34,1.11.18.33.34.67.5,1.01.16.34.12.76.26,1.11.13.35.55.6.67.96.11.36.28.71.37,1.08.09.36-.02.78.05,1.15.07.37.29.72.34,1.1.04.37-.24.78-.22,1.15.02.37.22.74.22,1.12,0,.58.15.58.16,1.15,0,.58-.27.58-.27,1.16s.19.58.19,1.15.03.57.03,1.15-.28.58-.28,1.15.18.57.18,1.15-.14.57-.14,1.15-.03.58-.03,1.15.18.57.18,1.15.1.57.1,1.15-.27.57-.27,1.15.2.57.2,1.14-.1.57-.1,1.14.23.57.23,1.15-.38.57-.39,1.14c0,.01.27,0,.27,0-.01.55-.13.55-.13,1.1s-.17.55-.17,1.1.06.55.06,1.1.36.55.36,1.1.31.83-.08,1.22Z"/>
    <path class="cls-1" d="M112.18,59.12c0-.56.04-.56.04-1.11s-.15-.56-.15-1.11-.12-.55-.12-1.11-.08-.56-.08-1.11.28-.55.28-1.11-.28-.56-.28-1.11.29-.55.29-1.11.02-.55.02-1.11-.25-.56-.25-1.11-.03-.55-.03-1.11c0-.38.03-.75,0-1.13-.04-.38.14-.8.06-1.17-.08-.37-.4-.69-.52-1.04-.13-.36-.42-.63-.59-.97-.17-.34-.32-.66-.52-.98-.2-.32-.3-.7-.54-1-.24-.3-.34-.72-.61-.99-.27-.27-.6-.49-.9-.73-.3-.24-.67-.38-.99-.58-.32-.2-.72-.25-1.06-.41-.34-.16-.69-.27-1.05-.4-.36-.12-.62-.56-1-.65-.37-.08-.77-.02-1.15-.07-.37-.04-.76.14-1.14.14s-.77-.24-1.15-.2c-.38.04-.7.4-1.06.48-.37.08-.78-.01-1.14.11-.36.13-.64.42-.98.58-.34.17-.81.1-1.13.3-.32.2-.67.39-.97.63-.3.24-.47.63-.74.89s-.41.64-.64.94c-.24.3-.56.52-.77.84-.2.32-.3.69-.47,1.03-.16.34-.6.58-.73.94-.12.36-.02.79-.1,1.17-.08.37-.29.72-.33,1.1-.04.37.12.77.12,1.15,0,.56.1.56.1,1.12s-.06.56-.06,1.12-.29.56-.29,1.11.35.56.35,1.11-.27.55-.27,1.11.28.56.28,1.11-.36.55-.36,1.11.09.56.09,1.11.23.55.23,1.11.05.55.05,1.11-.38.56-.38,1.11-.18.66.02,1.18c.37-.15.86-.5,1.2-.68.35-.19.65-.43.96-.66.32-.23.68-.39.97-.65.29-.27.73-.4.98-.7.26-.3.44-.67.66-1,.22-.33.4-.69.56-1.05.17-.36.14-.79.25-1.16.11-.37.12-.75.18-1.14.06-.39.31-.71.31-1.11.5-.19.52,0,1.06,0s.54.19,1.07.19.53-.31,1.07-.31.53-.06,1.07-.06.53.19,1.06.19.53-.17,1.07-.17.53.33,1.07.33.56-.37,1.06-.18c0,.4,0,.79.05,1.18.06.39,0,.83.11,1.2.12.38.62.61.78.96.17.36.1.84.31,1.17.21.33.54.59.8.89.26.3.46.66.76.92.29.26.64.48.96.71.32.23.61.54.96.73.34.19.99.27,1.35.43.2-.52-.38-.63-.38-1.19s.31-.56.31-1.12Z"/>
    <path class="cls-1" d="M68.44,51.22c0-.58.14-.58.14-1.16,0-.38-.12-.73-.18-1.09-.06-.37.16-.81.04-1.16-.12-.35-.47-.62-.64-.95-.17-.33-.25-.73-.46-1.03-.22-.3-.6-.46-.86-.73-.26-.26-.6-.41-.9-.63-.3-.22-.56-.45-.89-.62-.33-.17-.56-.58-.92-.7-.35-.11-.79.14-1.16.08-.36-.06-.7-.36-1.08-.36s-.72.31-1.08.36c-.37.06-.81-.2-1.16-.09-.35.12-.68.35-1.01.51-.33.17-.52.56-.82.78-.3.22-.53.48-.8.74-.26.26-.79.3-1.01.6-.22.3-.42.64-.59.97-.17.33-.02.8-.13,1.15-.11.35-.15.7-.21,1.07-.06.36-.18.7-.18,1.08,0,.57-.21.57-.21,1.14s.08.57.08,1.14.02.57.02,1.14.19.57.19,1.14.08.57.08,1.14-.25.57-.25,1.14,0,.57,0,1.13-.19.57-.19,1.14.31.57.31,1.13-.08.55.06,1.09c.32.13.49.31.83.41.33.1.71.01,1.06.08.34.06.65.44,1,.47.35.03.71-.13,1.07-.13.38,0,.77.07,1.14.04.38-.04.74-.19,1.11-.27.37-.07.69-.31,1.05-.42.36-.11.69-.27,1.03-.41.35-.15.84,0,1.16-.19.33-.19.59-.5.89-.72.31-.22.47-.61.75-.86.28-.25.73-.34.97-.62.25-.28.24-.76.45-1.07.21-.31.57-.52.74-.86.17-.34.16-.74.28-1.09.12-.36.5-.66.57-1.03.03-.58.05-.59.05-1.17s-.18-.58-.18-1.16-.15-.58-.15-1.16Z"/>
  </g>
  <g>
    <g>
      <path class="cls-1" d="M175.62,47.68l-.07.92.13,1.05-.2,2.3.07,1.64.13.53v3.48l-.26,1.05.13,1.51-.13,1.71.13,1.77v.79l-.13,1.25.33,1.45-.2,2.17.26,1.18-.26,1.97.13,1.25-.13,2.76.2.85-.2,2.43v1.25l.13.26-.13,2.1.2.72c-.2,1.18-.53,1.84-.85,2.43-.46.72-1.12.92-1.91,1.05l-.53-.2h-3.68c-.2,0-.39.07-.53.07-.26,0-.46-.07-.85-.26-.53-.39-.72-.66-1.12-1.18-.07-.2-.2-.53-.2-.72,0-.13,0-.2.2-1.91l-.2-.85.2-2.37-.2-1.31.13-.53-.2-1.77.13-.85v-1.84l-.13-1.71.13-1.12-.13-1.12v-2.3c-.07-.2-.26-.33-.66-.66-.13-.13-.2-.2-.33-.2s-.26.07-.39.2l-2.43-.26-.66.07c-.13,0-.26-.07-.39-.07-.59,0-1.45.53-1.45,1.25,0,.07.07.13.07.2l-.13.99.26,2.23-.13,1.51.07.59v2.37l-.26,1.05.2,1.18v2.83l-.2,1.25.26,1.58-.07,1.84c-.2.53-.59,1.12-1.05,1.58-.39.33-.79.46-1.18.46l-.33-.07-1.12.13h-2.23c-1.64-.33-2.1-.26-2.43-.33-1.05-1.25-1.12-1.91-1.12-2.37v-3.61l-.13-2.17-.13-.92.26-2.43-.33-.79.33-2.43v-1.25l-.13-.2.13-2.37v-2.3l-.2-1.64.39-1.31v-2.1l-.26-.33.13-2.96-.13-.85.07-1.71-.2-.46.07-1.97-.13-.66.2-2.63.26-.72-.2-2.3v-.92c0-.46,0-.72-.13-1.31.13-.33.2-.85.46-1.84,0-.46.26-1.05.26-1.71l.26-1.12c.26-.26.39-.59.79-1.25.13-.26.26-.39.53-.66.53-.26.85-1.05,1.05-1.64.53,0,.66-.79.99-.79.46-.2.79-.26,1.25-.66.53-.13.66-.59,1.25-.85.59-.33,1.25-.39,1.71-.59.2,0,.33-.07.53-.07s.33.07.59.13c.53-.33,1.58-.53,2.56-.79h.59c.33,0,.66,0,1.18.26.2-.2.66-.07,1.18-.26.99.79,1.77.59,2.5,1.05l1.25.53c.66.53,1.77.79,2.3,1.58,1.64,1.51,1.84,1.84,2.1,2.17l.33.26c.33.53.46,1.31.72,1.45.2.79.26,1.38.39,1.71.13.39.33.66.33,1.18,0,.33.39,1.18.39,1.38,0,.39-.33.85-.33,1.58l.26,2.04ZM159.79,56.81l.39.39c.07.46.53.92,1.12.92l1.71-.13h1.84c.66-.2,1.18-.79,1.18-1.31l.26-.53-.2-2.69.2-1.25-.33-2.37-.07-1.84.13-1.58-.13-.92c.13-.13.13-.39.13-.59,0-.33-.07-.66-.2-.99-.13-.33-.2-.46-.2-.72-.33-.07-.92-.79-1.31-.99-.33-.07-.66-.26-.92-.26-.07,0-.2,0-.26.07-.59,0-.85.07-1.12.07-.72.07-.92.59-1.05.79-.53.33-.79.85-1.18,1.64,0,.46.07.66.07,1.05l.2.59-.39,2.69.2,5.06-.2.99.2,1.45-.07.46Z"/>
      <path class="cls-1" d="M189.22,37.62l.07.92-.13,2.43.13,1.18-.13.79.2,2.04-.07.99v1.45l-.2,1.84.13,1.84v.66l.2,1.31-.26.85.26,1.51-.2,3.81.2,1.71-.2,3.22.13,3.02-.13,1.45.13.53.13,1.64-.33,1.77.26.92-.33,1.97.26,1.64.66.92c.2.07.59.2,2.04.2l.92-.26,1.97.26.46.13c.33-.07.79-.13,1.12-.13.2,0,.39,0,.53.07.39.13,1.18.72,1.18,1.18.07.13.13.72.26,1.31l.13.72-.2,2.1.07,1.97c-.13.2-.53.53-.53.72-.2.53-.33.72-.92.99l-1.05.39-2.37-.26-.39.13-1.84-.07-.92.2-2.43-.2h-1.25l-.66-.07-1.77.39-2.37-.13c-.46-.39-.72-.39-1.12-.85-.2-.2-.59-.2-.66-.59-.39-.13-.46-.53-.46-.92v-.33l.2-1.12-.53-1.64.46-2.04-.26-1.51.07-1.71.26-.39-.13-1.64.13-.99-.26-1.31.13-2.23-.07-1.91-.2-1.58.2-.39-.13-2.83.26-1.31-.13-2.3.07-1.05-.13-.85-.07-1.91.07-1.64-.26-1.05.33-2.3.07-.92-.39-1.45.39-2.1-.2-2.23.2-1.18-.13-2.37.2-.92-.13-2.5.13-1.12c-.07-.2-.07-.39-.07-.59,0-.33.07-.53.26-.92,0-.46.13-1.05.72-1.12.46-.33.79-.53,1.18-.53.13,0,.2.07.33.07l1.38.07,2.76-.26c.39,0,1.25.2,1.58.46.13.2.39.2.39.66.53.2.99.79.99,1.51l-.2,1.77Z"/>
      <path class="cls-1" d="M198.74,33.29l.33-.13,2.17.26,1.18-.2,2.04.26,1.38-.13.53.2h2.69l2.89-.26.26.2,1.71-.33,1.84.07c.53.07,1.45.2,1.77.59.33.13.39.66.59.72.26.53.26.99.39,1.18v1.31l-.13,1.25v2.3l-.2.59c-.13.39-.33.59-.59.85-.46.46-1.31.33-1.58.59l-1.71-.2-1.71.13c-.26.07-.66.07-.99.2-.33.13-.39.79-.46,1.38l-.13,1.25v2.69l.13,2.43v1.45l-.13.85.2,1.18-.26,1.51.2,1.58-.2,1.97.13,1.18-.2,2.23.33,1.77-.13,1.45.13,1.51-.13,2.1v.99l-.13,1.45.26,1.58-.13,1.51.26.66-.33,2.56.07,1.97-.13,1.84.2,2.04-.13,1.51c-.13.33-.2.59-.53.92-.07.39-.59.79-.85.92-.33.2-.79.39-1.12.39l-1.71.07-2.3-.26c-.46.13-.79,0-1.18.2-.72-.46-1.18-1.25-1.38-1.51-.13-.39-.39-.72-.39-1.18l-.07-1.05.33-4.53-.26-1.51.13-1.25-.13-3.55.07-.99-.2-1.31.07-1.91.26-1.71-.13-1.77.13-.66-.26-.99v-3.48l-.07-1.25.2-1.58.07-1.38-.33-1.58.33-1.71-.2-1.31v-2.23l.13-1.05-.07-1.64.13-1.12-.07-1.38-.07-.39c-.26-.59-.66-.99-1.05-.99-.13,0-.26.07-.39.13l-1.58.13-2.04-.53-.39.13c-.39-.07-.99-.72-1.58-1.18-.07-.26-.2-.53-.2-.85,0-.13,0-.33.07-.46l-.2-1.97.2-.66v-2.23l.13-.53c.2-.39.72-1.12,1.51-1.12.26-.07.46-.13.72-.13h.33l1.64-.07Z"/>
      <path class="cls-1" d="M234.22,78.03h2.04l1.38.13.79.26c.26-.13.46-.13.66-.13.46,0,.79.2.92.33.26.53.79.79.85,1.25.07.13.07.33.07.46,0,.2,0,.39-.13.59l.2,1.64-.2.39.07,1.84c0,.07.07.13.07.2,0,.53-.46,1.51-.66,1.77-.2.13-.53.53-.99.66-.26.07-.53.07-.99.2h-1.18l-1.51-.33-1.71.2-1.18-.13-1.51.13h-1.77l-.46-.33-2.69.33-1.18-.26-1.71.2c-.2,0-.53-.13-.59-.13-.33-.13-.53-.53-.85-.72-.39-.59-.72-.99-.79-1.45l.2-2.23.2-.26-.2-2.43.13-.59-.13-1.84.2-.53-.39-2.89.13-2.17v-1.25l.2-2.5-.13-1.38.13-.66-.26-1.77.26-.72-.13-1.91-.13-.39v-2.63l.13-2.17.2-1.05-.2-.85.13-1.91v-2.96l-.13-.53.2-1.25-.39-2.69.39-2.23-.33-1.64.39-1.05-.39-2.56.33-1.38-.26-1.45c.2-.46.2-.79.46-1.05.39-.26.72-.53,1.31-.72.13-.07.26-.13.39-.13s.26.07.33.13l1.71-.39.92.46,1.51-.26h2.17l.72-.07,1.64.13.72-.13,2.5.26,1.31-.13.72.13c.39-.2.72-.33.99-.33.33,0,.59.2.92.53.33.07.72.39.79.59.53.46.46.99.59,1.58l-.2.85.26,2.43-.07,1.18.07.26c-.13.53-.53,1.05-.85,1.25-.66.46-1.31.79-1.84.85l-1.18-.2-1.31.26-2.56-.13-.66-.13c-.13-.07-.2-.07-.33-.07-.53,0-.99.39-1.12.53-.33.39-.39.72-.39,1.18l.33.46-.46,2.56.26,1.38-.13,2.04-.2.46.2,2.1-.07,1.18c.2.53.39.66.53,1.05.33.13.66.26,1.12.26l.85-.2,2.17.39,1.64-.13c.59.07,1.12.13,1.51.39.26.2.39.33.66.66.07.26.33.66.33,1.38l.2,1.38-.33,1.12.13,2.3c-.2.53-.26,1.05-.53,1.18l-.99.33c-.46.59-.39.33-.79.66h-2.1l-2.17-.2c-.13-.07-.26-.07-.39-.07-.46,0-.66.33-1.05.53-.46.07-.66.59-.72,1.25l.13,1.18-.2,1.91.26,1.05-.2,2.3-.13.53.13,1.51-.07,1.91.07.66c.39.26,1.05.59,1.77.59l1.64-.2Z"/>
      <path class="cls-1" d="M268.58,72.91l.07.66-.2,2.5c.07.26.13.59.13.85s-.07.53-.2.72c0,.13-.13.59-.13.99l-.33.46c-.13.53-.2,1.84-.59,2.23l-.39.39c0,.72-.53.99-.79,1.45-.13.13-.2.33-.26.85-.66.33-1.05.59-2.04,1.38l-.53.53c-.72.53-1.31.26-1.91.85-.79.39-1.25.59-2.1.66h-.33c-.53,0-.72.2-1.84.26l-.53.26c-.33-.07-.59-.13-.85-.13-.33,0-.66.07-1.05.07-.2,0-.46-.07-.66-.07h-.39c-1.31-.26-2.43-.66-3.02-.92-.2,0-.39-.13-.66-.13-.39-.26-.59-.46-.92-.92-.33-.07-1.05-.39-1.64-1.05-.72-.2-1.05-.66-1.31-1.05l-.39-.13c-.39-.53-.85-1.31-1.05-2.04-.13-.13-.39-.85-.39-1.45-.2-.07-.33-.13-.39-.66,0-.39-.33-.99-.66-2.1v-.53c0-.26,0-.53.13-.79v-.53c0-.2,0-.33-.07-.53l.2-1.12-.33-1.84c0-.59.07-1.18.2-1.58.59-.2.66-.53,1.25-.99.46-.2.72-.39,1.25-.39h2.04l.92.13,1.31-.13c.39.07.72.13.99.26.46.07,1.51.59,1.58,1.64,0,.2.07.39.2.79l.07,1.51-.2,1.45c.07.33.07.66.07.85v.53c0,.2,0,.33.13.46,0,.72.39,1.31.79,1.51l.79.13c.26.33.59.66,1.25.66.2,0,.39,0,.66-.07l.33-.2c.85-.26,1.25-.26,1.84-1.12l.33-.85c.07-.33.2-.66.2-.99,0-.13,0-.26-.07-.39l-.13-1.64.07-1.97c0-.33.07-.66.07-.79-.33-.72-.2-1.51-.26-1.71-.07-.53-.26-.72-.72-1.31.07-.2.13-.39.13-.53,0-.33-.13-.53-.46-.66l-.59-.13c-1.18-.53-1.31-1.31-2.1-1.51l-.59-.46-1.97-1.18-.72-.53c-.33-.46-.39-.46-.39-.46-.53,0-1.31-.72-1.77-.72-.79-.72-1.38-1.05-1.71-1.38-.2-.26-.39-.33-.66-.33-.66-.46-1.12-1.18-1.45-1.84-.13-.2-.39-.33-.66-.72-.2-.33-.2-.53-.26-.79-.2-.2-.66-.85-.72-1.58-.07-.26-.07-.46-.2-.79l-.26-.26-.2-1.38c0-.26.07-.46.07-.66,0-.26-.07-.53-.13-.85v-.53c0-.72-.07-1.38-.13-1.64v-2.23l-.13-1.05v-.39c0-.79.26-1.31.26-1.91.07-.39.2-.79.2-.92.13-.39.07-.53.2-.92.07-.33.59-1.25.72-1.77.07-.33,0-.59.2-1.05.07-.13.26-.46.33-.46.33-.66.66-.79,1.12-1.18.13-.26.39-.66.79-.66.53-.53,1.05-1.05,1.64-1.45.2-.07.39-.2.99-.33.2-.46,1.38-1.18,2.5-1.25.13-.07.66-.33,1.12-.33.13,0,.2,0,.33.07.26-.2.53-.13.99-.33.39,0,.79.07,1.05.07h.39c.26,0,.53-.07.72-.07.07,0,.2,0,.26.07.79.07.99.39,1.71.59.26.07.53.07.72.07.46,0,.85,0,1.31.33.46.2.85.39,1.25.46.33.33.72.33,1.25.53.66.39.99.66,1.58,1.31l.33.53c.39.13.59.46.85.59.13.26.53.59.85,1.18.13.39.66,1.05.72,1.45.13.26.46.66.53,1.12,0,.33.07.59.07.85,0,.13,0,.33-.13.53.07.53.59,1.38.59,2.17,0,.33-.13.72-.26,1.25l.26,1.64-.07,1.38c-.13.53-.33.79-.53,1.12l-.13.39c-.59.66-1.51.85-2.23.85l-1.51-.2-.92-.2c-1.51.13-1.58.13-1.64.13-.39,0-1.18-.26-1.51-.46l-.53-.59c-.26-.07-.39-.92-.46-1.38l-.26-.72.33-2.63c0-.26-.26-.59-.26-.85-.33-.66-.46-1.12-.72-1.31-.33-.33-.59-.53-1.05-.85-.39-.07-.72-.13-.99-.26-.79.07-1.38.26-1.64.53-.33.2-.59.26-.66.39-.39.59-.79.59-.99,1.77,0,.2-.13.46-.13.72,0,.07,0,.2.07.26l-.13,2.04.26,1.05c0,.26-.07.46-.07.79,0,.2.07.46.13.66,0,.2,0,.39.13.66v.66c.39.39.59.92.85,1.51.39,0,.59.46,1.25.72.46.66.85.85,1.51,1.31l1.18.66,1.12.99.79.33,1.12.85c.66.59,1.51.85,1.64,1.05l1.45.72c.26.53.53.59.85.92.33.53.39.39.66.85.2.26.79.72,1.12.92-.07.13.39.66.59,1.05l.13.59c.33.46.79.72.79,1.25l.2.66c-.07.13-.07.33-.07.46,0,.39.13.72.13,1.31v1.64c.2.39.46,1.12.46,1.91l-.26,1.84Z"/>
      <path class="cls-1" d="M297.89,47.68l-.07.92.13,1.05-.2,2.3.07,1.64.13.53v3.48l-.26,1.05.13,1.51-.13,1.71.13,1.77v.79l-.13,1.25.33,1.45-.2,2.17.26,1.18-.26,1.97.13,1.25-.13,2.76.2.85-.2,2.43v1.25l.13.26-.13,2.1.2.72c-.2,1.18-.53,1.84-.85,2.43-.46.72-1.12.92-1.91,1.05l-.53-.2h-3.68c-.2,0-.39.07-.53.07-.26,0-.46-.07-.85-.26-.53-.39-.72-.66-1.12-1.18-.07-.2-.2-.53-.2-.72,0-.13,0-.2.2-1.91l-.2-.85.2-2.37-.2-1.31.13-.53-.2-1.77.13-.85v-1.84l-.13-1.71.13-1.12-.13-1.12v-2.3c-.07-.2-.26-.33-.66-.66-.13-.13-.2-.2-.33-.2s-.26.07-.39.2l-2.43-.26-.66.07c-.13,0-.26-.07-.39-.07-.59,0-1.45.53-1.45,1.25,0,.07.07.13.07.2l-.13.99.26,2.23-.13,1.51.07.59v2.37l-.26,1.05.2,1.18v2.83l-.2,1.25.26,1.58-.07,1.84c-.2.53-.59,1.12-1.05,1.58-.39.33-.79.46-1.18.46l-.33-.07-1.12.13h-2.23c-1.64-.33-2.1-.26-2.43-.33-1.05-1.25-1.12-1.91-1.12-2.37v-3.61l-.13-2.17-.13-.92.26-2.43-.33-.79.33-2.43v-1.25l-.13-.2.13-2.37v-2.3l-.2-1.64.39-1.31v-2.1l-.26-.33.13-2.96-.13-.85.07-1.71-.2-.46.07-1.97-.13-.66.2-2.63.26-.72-.2-2.3v-.92c0-.46,0-.72-.13-1.31.13-.33.2-.85.46-1.84,0-.46.26-1.05.26-1.71l.26-1.12c.26-.26.39-.59.79-1.25.13-.26.26-.39.53-.66.53-.26.85-1.05,1.05-1.64.53,0,.66-.79.99-.79.46-.2.79-.26,1.25-.66.53-.13.66-.59,1.25-.85.59-.33,1.25-.39,1.71-.59.2,0,.33-.07.53-.07s.33.07.59.13c.53-.33,1.58-.53,2.56-.79h.59c.33,0,.66,0,1.18.26.2-.2.66-.07,1.18-.26.99.79,1.77.59,2.5,1.05l1.25.53c.66.53,1.77.79,2.3,1.58,1.64,1.51,1.84,1.84,2.1,2.17l.33.26c.33.53.46,1.31.72,1.45.2.79.26,1.38.39,1.71.13.39.33.66.33,1.18,0,.33.39,1.18.39,1.38,0,.39-.33.85-.33,1.58l.26,2.04ZM282.05,56.81l.39.39c.07.46.53.92,1.12.92l1.71-.13h1.84c.66-.2,1.18-.79,1.18-1.31l.26-.53-.2-2.69.2-1.25-.33-2.37-.07-1.84.13-1.58-.13-.92c.13-.13.13-.39.13-.59,0-.33-.07-.66-.2-.99-.13-.33-.2-.46-.2-.72-.33-.07-.92-.79-1.31-.99-.33-.07-.66-.26-.92-.26-.07,0-.2,0-.26.07-.59,0-.85.07-1.12.07-.72.07-.92.59-1.05.79-.53.33-.79.85-1.18,1.64,0,.46.07.66.07,1.05l.2.59-.39,2.69.2,5.06-.2.99.2,1.45-.07.46Z"/>
    </g>
    <g>
      <path class="cls-1" d="M308.8,52.18v-7.81c0-3.42,1.79-5.18,4.65-5.18s4.65,1.76,4.65,5.18v7.81c0,3.42-1.79,5.18-4.65,5.18s-4.65-1.76-4.65-5.18ZM316.22,52.07v-7.59c0-2.32-1.09-3.5-2.77-3.5s-2.77,1.18-2.77,3.5v7.59c0,2.32,1.09,3.5,2.77,3.5s2.77-1.18,2.77-3.5ZM312.64,37.81c-.25.22-.45.25-.59.25-.34,0-.59-.31-.59-.62,0-.22.08-.36.36-.7l1.65-2.07c.39-.48.73-.62,1.29-.62h.64c.36,0,.62.31.62.59,0,.17-.06.36-.22.5l-3.16,2.66Z"/>
      <path class="cls-1" d="M330.92,44.28v7.81c0,1.71-.42,2.94-1.15,3.81-.76.92-1.93,1.43-3.16,1.43-1.12,0-1.74-.39-2.21-.53-.08-.03-.2-.06-.36-.06-.2,0-.34.08-.42.2-.08.11-.14.25-.14.53,0,.11.03.53.03.78v2.94c0,.34-.25.59-.62.59h-.64c-.34,0-.62-.25-.62-.59v-21.03c0-.42.31-.78.84-.78.28,0,.5.11.73.31l.06.06c.17.17.28.22.48.22.22,0,.64-.25.98-.36.5-.2,1.2-.42,1.85-.42,2.8,0,4.37,2.1,4.37,5.1ZM323.5,52.15c0,2.21.9,3.39,2.91,3.39.76,0,1.51-.34,1.96-.95.42-.59.67-1.43.67-2.69v-7.42c0-2.41-1.12-3.5-2.74-3.5-.98,0-1.71.31-2.18.95-.39.53-.62,1.23-.62,2.41v7.81Z"/>
      <path class="cls-1" d="M335.18,41.71c0-.36-.25-.56-.59-.56h-1.09c-.34,0-.59-.25-.59-.59v-.59c0-.34.25-.59.59-.59h1.09c.34,0,.59-.2.59-.56v-2.18c0-.34.25-.59.62-.59h.67c.34,0,.62.25.62.59v2.18c0,.34.22.56.56.56h2.46c.34,0,.59.25.59.59v.59c0,.34-.25.59-.59.59h-2.46c-.34,0-.56.22-.56.56v11.65c0,.53.11,1.12.36,1.46.25.34.73.56,1.4.56h1.23c.31,0,.56.25.56.56v.64c0,.31-.25.59-.56.59h-.87c-1.43,0-2.41-.34-3.05-.98-.67-.64-.98-1.6-.98-3.08v-11.4Z"/>
      <path class="cls-1" d="M343.58,34.65c0-.34.28-.59.62-.59h.87c.36,0,.62.25.62.59v.92c0,.34-.25.59-.62.59h-.87c-.34,0-.62-.25-.62-.59v-.92ZM343.69,39.97c0-.34.28-.59.62-.59h.64c.36,0,.62.25.62.59v16.6c0,.34-.25.59-.62.59h-.64c-.34,0-.62-.25-.62-.59v-16.6Z"/>
      <path class="cls-1" d="M351.39,44.7v7.14c0,2.74,1.09,3.72,2.8,3.72,2.02,0,2.74-1.57,2.74-3.28v-.08c0-.34.28-.59.59-.59h.7c.34,0,.59.25.59.59v.22c0,2.35-1.15,4.93-4.62,4.93-2.77,0-4.68-1.57-4.68-5.18v-7.81c0-3.5,1.96-5.18,4.68-5.18,3.42,0,4.62,2.58,4.62,4.93v.22c0,.34-.25.59-.59.59h-.73c-.31,0-.56-.25-.56-.59v-.08c0-1.99-.95-3.28-2.74-3.28s-2.8,1.18-2.8,3.72Z"/>
      <path class="cls-1" d="M361.89,52.21v-.31c0-1.12.28-2.32.92-3.19.73-.95,1.79-1.62,3.58-1.62h2.32c.34,0,.59-.22.59-.59v-2.02c0-2.38-1.12-3.5-2.74-3.5s-2.74,1.12-2.74,3.16v.2c0,.34-.28.59-.62.59h-.7c-.34,0-.59-.25-.59-.59v-.2c0-3.02,1.88-4.96,4.65-4.96s4.65,1.79,4.65,5.18v11.98c0,.42-.28.78-.84.78-.28,0-.5-.11-.7-.31l-.06-.06c-.17-.17-.31-.22-.5-.22-.22,0-.64.25-.95.36-.53.2-1.2.39-1.9.39-2.77,0-4.37-2.18-4.37-5.1ZM363.82,52.07c0,2.41,1.09,3.5,2.74,3.5.95,0,1.71-.31,2.16-.95.39-.53.59-1.29.59-2.46v-2.74c0-.31-.17-.53-.59-.53h-2.07c-.95,0-1.6.25-2.02.67-.56.53-.81,1.37-.81,2.41v.11Z"/>
      <path class="cls-1" d="M388.32,56.57c0-.25.03-.67.03-.78,0-.28-.06-.42-.14-.53-.08-.11-.22-.2-.42-.2-.17,0-.28.03-.36.06-.48.14-1.09.53-2.21.53-1.2,0-2.38-.5-3.16-1.43-.7-.87-1.15-2.1-1.15-3.81v-10.47c0-.31.28-.56.59-.56h.7c.34,0,.59.25.59.56v10.28c0,1.26.28,2.13.7,2.72.48.62,1.18.92,1.93.92,2.02,0,2.91-1.18,2.91-3.39v-10.53c0-.31.25-.56.59-.56h.73c.31,0,.56.25.56.56v16.04c0,2.1-.22,2.97-.64,3.75-.76,1.46-2.18,2.21-4.03,2.21-2.44,0-4.17-1.43-4.54-4v-.25c0-.34.25-.59.56-.59h.64c.36,0,.62.22.67.59l.03.22c.28,1.46,1.46,2.24,2.69,2.24,1.54,0,2.74-1.01,2.74-3.36v-.22Z"/>
      <path class="cls-1" d="M308.63,82.6v-.31c0-1.12.28-2.32.92-3.19.73-.95,1.79-1.62,3.58-1.62h2.32c.34,0,.59-.22.59-.59v-2.02c0-2.38-1.12-3.5-2.74-3.5s-2.74,1.12-2.74,3.16v.2c0,.34-.28.59-.62.59h-.7c-.34,0-.59-.25-.59-.59v-.2c0-3.02,1.88-4.96,4.65-4.96s4.65,1.79,4.65,5.18v11.98c0,.42-.28.78-.84.78-.28,0-.5-.11-.7-.31l-.06-.06c-.17-.17-.31-.22-.5-.22-.22,0-.64.25-.95.36-.53.2-1.2.39-1.9.39-2.77,0-4.37-2.18-4.37-5.1ZM310.56,82.46c0,2.41,1.09,3.5,2.74,3.5.95,0,1.71-.31,2.16-.95.39-.53.59-1.29.59-2.46v-2.74c0-.31-.17-.53-.59-.53h-2.07c-.95,0-1.6.25-2.02.67-.56.53-.81,1.37-.81,2.41v.11Z"/>
      <path class="cls-1" d="M321.48,82.57v-12.24c0-.31.25-.56.56-.56h.76c.31,0,.56.25.56.56v11.87c0,1.34.22,2.32.81,2.97.5.53,1.23.78,1.96.78s1.46-.22,2.02-.76c.59-.64.76-1.65.76-3v-11.87c0-.31.25-.56.62-.56h.67c.31,0,.59.25.59.56v16.44c0,.42-.31.78-.84.78-.28,0-.5-.11-.73-.31l-.06-.06c-.17-.17-.28-.22-.48-.22-.22,0-.64.25-.98.36-.5.2-1.18.42-1.88.42-1.18,0-2.24-.39-3.11-1.32-.73-.78-1.23-1.93-1.23-3.86Z"/>
      <path class="cls-1" d="M334.22,82.63v-7.81c0-1.71.42-2.94,1.15-3.81.76-.92,1.96-1.43,3.19-1.43,1.12,0,1.71.39,2.18.53.08.03.2.06.36.06.2,0,.34-.08.42-.2s.14-.25.14-.53c0-.11-.03-.53-.03-.78v-3.61c0-.34.25-.59.62-.59h.64c.34,0,.62.25.62.59v21.7c0,.42-.34.78-.87.78-.28,0-.5-.11-.73-.31l-.06-.06c-.17-.17-.28-.22-.48-.22-.22,0-.64.25-.98.36-.5.2-1.18.42-1.82.42-2.8,0-4.37-2.1-4.37-5.1ZM341.64,74.76c0-2.21-.87-3.39-2.88-3.39-.76,0-1.54.34-1.99.95-.42.59-.67,1.43-.67,2.69v7.45c0,2.41,1.15,3.5,2.77,3.5.98,0,1.68-.31,2.16-.95.39-.53.62-1.26.62-2.44v-7.81Z"/>
      <path class="cls-1" d="M347.35,65.04c0-.34.28-.59.62-.59h.87c.36,0,.62.25.62.59v.92c0,.34-.25.59-.62.59h-.87c-.34,0-.62-.25-.62-.59v-.92ZM347.47,70.36c0-.34.28-.59.62-.59h.64c.36,0,.62.25.62.59v16.6c0,.34-.25.59-.62.59h-.64c-.34,0-.62-.25-.62-.59v-16.6Z"/>
      <path class="cls-1" d="M353.29,82.57v-7.81c0-3.42,1.79-5.18,4.65-5.18s4.65,1.76,4.65,5.18v7.81c0,3.42-1.79,5.18-4.65,5.18s-4.65-1.76-4.65-5.18ZM360.71,82.46v-7.59c0-2.32-1.09-3.5-2.77-3.5s-2.77,1.18-2.77,3.5v7.59c0,2.32,1.09,3.5,2.77,3.5s2.77-1.18,2.77-3.5Z"/>
      <path class="cls-1" d="M366.53,65.04c0-.34.28-.59.62-.59h.64c.36,0,.62.25.62.59v21.92c0,.34-.25.59-.62.59h-.64c-.34,0-.62-.25-.62-.59v-21.92Z"/>
      <path class="cls-1" d="M372.36,82.57v-7.81c0-3.42,1.79-5.18,4.65-5.18s4.65,1.76,4.65,5.18v7.81c0,3.42-1.79,5.18-4.65,5.18s-4.65-1.76-4.65-5.18ZM379.78,82.46v-7.59c0-2.32-1.09-3.5-2.77-3.5s-2.77,1.18-2.77,3.5v7.59c0,2.32,1.09,3.5,2.77,3.5s2.77-1.18,2.77-3.5Z"/>
      <path class="cls-1" d="M394.48,86.38c0,2.1-.22,2.97-.64,3.75-.76,1.46-2.18,2.21-4.03,2.21-2.44,0-4.17-1.43-4.54-4v-.25c0-.34.25-.59.56-.59h.64c.36,0,.62.22.67.59l.03.22c.28,1.46,1.46,2.24,2.69,2.24,1.54,0,2.74-1.01,2.74-3.36v-.22c0-.25.03-.67.03-.78,0-.28-.06-.42-.14-.53-.08-.11-.22-.2-.42-.2-.17,0-.28.03-.36.06-.48.14-1.09.53-2.21.53-1.2,0-2.38-.5-3.16-1.43-.7-.87-1.15-2.1-1.15-3.81v-6.13c0-3,1.6-5.1,4.4-5.1.62,0,1.29.22,1.82.42.31.11.73.36.95.36s.36-.06.59-.28c.2-.2.42-.31.7-.31.56,0,.84.36.84.78v15.82ZM392.6,74.73c0-1.18-.22-1.9-.62-2.44-.45-.64-1.2-.95-2.16-.95-1.62,0-2.77,1.09-2.77,3.5v5.77c0,1.26.28,2.13.7,2.72.48.62,1.18.92,1.93.92,2.02,0,2.91-1.18,2.91-3.39v-6.13Z"/>
      <path class="cls-1" d="M399.49,68.21c-.25.22-.45.25-.59.25-.34,0-.59-.31-.59-.62,0-.22.08-.36.36-.7l1.65-2.07c.39-.48.73-.62,1.29-.62h.64c.36,0,.62.31.62.59,0,.17-.06.36-.22.5l-3.16,2.66ZM398.37,70.36c0-.34.28-.59.62-.59h.64c.36,0,.62.25.62.59v16.6c0,.34-.25.59-.62.59h-.64c-.34,0-.62-.25-.62-.59v-16.6Z"/>
      <path class="cls-1" d="M404.03,82.6v-.31c0-1.12.28-2.32.92-3.19.73-.95,1.79-1.62,3.58-1.62h2.32c.34,0,.59-.22.59-.59v-2.02c0-2.38-1.12-3.5-2.74-3.5s-2.74,1.12-2.74,3.16v.2c0,.34-.28.59-.62.59h-.7c-.34,0-.59-.25-.59-.59v-.2c0-3.02,1.88-4.96,4.65-4.96s4.65,1.79,4.65,5.18v11.98c0,.42-.28.78-.84.78-.28,0-.5-.11-.7-.31l-.06-.06c-.17-.17-.31-.22-.5-.22-.22,0-.64.25-.95.36-.53.2-1.2.39-1.9.39-2.77,0-4.37-2.18-4.37-5.1ZM405.96,82.46c0,2.41,1.09,3.5,2.74,3.5.95,0,1.71-.31,2.16-.95.39-.53.59-1.29.59-2.46v-2.74c0-.31-.17-.53-.59-.53h-2.07c-.95,0-1.6.25-2.02.67-.56.53-.81,1.37-.81,2.41v.11Z"/>
      <path class="cls-1" d="M417.21,91.14c-.17.11-.34.17-.45.17-.14,0-.28-.08-.42-.28l-.08-.11c-.11-.14-.17-.28-.17-.39,0-.17.11-.34.28-.48l.45-.34c.81-.59.9-1.2.9-1.76,0-.34-.17-.39-.34-.45l-.14-.06c-.17-.06-.34-.14-.34-.5v-1.01c0-.22.22-.56.56-.56h1.06c.39,0,.64.25.64.62v1.57c0,1.51-.62,2.6-1.65,3.36l-.31.22Z"/>
      <path class="cls-1" d="M431.05,71.34c0,1.74.36,2.55,2.16,3.44l2.13,1.04c2.21,1.09,3.25,2.3,3.25,4.87v1.96c0,3.3-1.79,5.1-4.7,5.1s-4.73-1.76-4.73-5.1v-1.62c0-.34.31-.59.62-.59h.7c.34,0,.62.25.62.59v1.18c0,2.58.98,3.75,2.8,3.75s2.8-1.23,2.8-3.75v-1.18c0-1.96-.81-2.8-2.18-3.47l-2.21-1.09c-2.32-1.15-3.14-2.46-3.14-4.79v-2.3c0-3.42,1.85-5.12,4.7-5.12,3.08,0,4.73,2.04,4.73,5.12v1.68c0,.31-.28.59-.59.59h-.76c-.31,0-.59-.28-.59-.59v-1.26c0-2.58-1.01-3.75-2.8-3.75s-2.8,1.23-2.8,3.75v1.54Z"/>
      <path class="cls-1" d="M444.09,85.12c0,.36.25.64.59.64h4.14c.31,0,.59.25.59.56v.67c0,.31-.28.56-.59.56h-6.02c-.31,0-.64-.25-.64-.56v-21.98c0-.31.34-.56.64-.56h.7c.34,0,.59.25.59.56v20.1Z"/>
      <path class="cls-1" d="M454.56,77.89c-.36,0-.59.28-.59.64v8.46c0,.31-.25.56-.62.56h-.7c-.31,0-.62-.25-.62-.56v-21.95c0-.31.31-.59.62-.59h4.14c2.91,0,4.7,1.79,4.7,5.12v3.22c0,3.33-1.85,5.1-4.73,5.1h-2.21ZM454.68,66.25c-.5,0-.7.17-.7.62v8.62c0,.45.14.62.59.62h2.3c1.79,0,2.72-1.15,2.72-3.72v-2.44c0-2.55-.87-3.7-2.69-3.7h-2.21Z"/>
    </g>
  </g>
</svg>